<?xml version="1.0" standalone="no"?>
<!DOCTYPE svg PUBLIC "-//W3C//DTD SVG 1.1//EN" "http://www.w3.org/Graphics/SVG/1.1/DTD/svg11.dtd" >
<svg xmlns="http://www.w3.org/2000/svg">
<metadata>
This is a custom SVG webfont generated by Font Squirrel.
Copyright   : Willing Race computer font v12 2002 2003 2009 Harold Lohner  HLohneraolcom  wwwharoldsfontscom   Inspired by the main title of NBCTVs Will  Grace designed by Number Seventeen
</metadata>
<defs>
<font id="WillingRaceRegular" horiz-adv-x="1452" >
<font-face units-per-em="2048" ascent="1638" descent="-410" />
<missing-glyph horiz-adv-x="555" />
<glyph unicode=" "  horiz-adv-x="555" />
<glyph unicode="&#x09;" horiz-adv-x="555" />
<glyph unicode="&#xa0;" horiz-adv-x="555" />
<glyph unicode="!" horiz-adv-x="440" d="M154 1229q0 59 24 102q29 53 84 53q113 0 113 -157q0 -37 -21 -213l-75 -654h-31q-6 123 -53 435q-41 280 -41 434zM156 86q0 47 30.5 79t77.5 32q49 0 82 -32t33 -79t-34 -75.5t-81 -28.5q-45 0 -76.5 29.5t-31.5 74.5z" />
<glyph unicode="&#x22;" horiz-adv-x="694" d="M96 1300q0 37 27 60.5t63 23.5q35 0 60.5 -24.5t25.5 -59.5q0 -86 -24 -210q-20 -104 -41 -207h-43q-20 70 -43 200q-25 141 -25 217zM444 1296q0 88 88 88q35 0 62 -25.5t27 -60.5q0 -82 -25 -208q-20 -104 -41 -207h-47q-4 27 -39 204q-25 129 -25 209z" />
<glyph unicode="#" horiz-adv-x="942" d="M63 307q0 246 189.5 443.5t433.5 197.5q88 0 154 -41q76 -47 75 -131q0 -100 -104 -100q-84 0 -84 88q0 16 17.5 48t17.5 44q0 20 -28.5 33.5t-51.5 13.5q-197 0 -322 -215q-106 -182 -106 -393q0 -104 43 -166q51 -74 149 -74q145 0 306 172l36 -20q-186 -231 -393 -232 q-332 0 -332 332z" />
<glyph unicode="$" horiz-adv-x="905" d="M78 104v269h35q37 -154 110 -228q84 -84 236 -86v576q-166 90 -242 160q-121 115 -121 252q0 143 113 229q100 76 250 82v131h71v-129q154 -25 175 -31q84 -23 157 -78v-227h-35q-25 129 -95 194.5t-202 86.5v-504q215 -125 265 -168q133 -115 133 -268q0 -174 -117 -265 q-92 -72 -281 -100v-178h-71v178q-217 6 -381 104zM250 1094q0 -125 207 -258l-4 467q-203 -53 -203 -209zM530 59q233 37 234 244q0 104 -72 178q-41 41 -162 117v-539z" />
<glyph unicode="%" horiz-adv-x="1056" d="M74 0l174 635q33 125 33 156q0 55 -138 55v37l361 63l-139 -450q102 137 204 276q147 176 283 176q141 0 141 -139q0 -94 -86 -352t-86 -338q0 -37 33 -37q45 0 176 172l33 -31q-80 -113 -127 -157q-86 -84 -174 -84q-106 0 -107 100q0 29 39 176q35 125 72 250 q51 193 51 270q0 61 -49 62q-100 0 -254 -211q-135 -182 -174 -305q-33 -109 -104 -324h-162z" />
<glyph unicode="&#x26;" horiz-adv-x="1564" d="M41 365q0 283 354 385q-131 131 -131 280q0 141 98.5 239.5t239.5 98.5q129 0 227.5 -86t98.5 -213q0 -96 -37 -149q-31 -45 -115 -97q-27 -16 -86 -53q119 -115 193 -231q72 -129 143 -256q37 61 113 186q-6 86 -54 164q-57 90 -133 92q6 0 -102 0v45h674v-45 q-139 0 -279 -184q-98 -152 -194 -301q55 -96 86 -134q63 -74 133 -73q33 0 73 16q78 33 130 88l32 -28q-119 -135 -288 -136q-188 0 -289 129q-86 -78 -180 -106q-76 -20 -205 -21q-205 0 -342 88q-160 105 -160 302zM86 365q0 -137 100 -232q94 -88 236 -108 q-242 133 -242 366q0 143 113 273q-207 -100 -207 -299zM256 426q0 -158 96 -279q104 -127 256 -127q162 0 293 117q-176 240 -221 297q-129 166 -244 279q-180 -84 -180 -287zM309 1030q0 -139 144 -272q178 -168 413 -496q98 -135 101 -139q63 -74 139 -94 q-70 51 -141 174q-10 18 -107 205q-61 121 -139 202q-29 31 -176 162q-70 61 -123 123q-70 80 -70 190q0 43 12 89v-3q4 23 13 43q-66 -80 -66 -184zM403 1133q0 -90 91 -185q80 -72 161 -143q53 23 88 108q29 72 29 144q0 98 -43 174q-51 90 -139 90q-78 0 -132.5 -55 t-54.5 -133zM756 1264q57 -84 57 -209q0 -109 -47 -193q86 61 86 162q0 172 -96 240zM1073 725q78 -59 103 -186q51 104 106 186h-209z" />
<glyph unicode="'" horiz-adv-x="354" d="M96 1296q0 39 25.5 63.5t64.5 24.5q37 0 61.5 -24.5t24.5 -61.5q0 -106 -63 -415h-47q-4 31 -39 204q-27 131 -27 209z" />
<glyph unicode="(" horiz-adv-x="552" d="M63 512q0 571 508 872l21 -32q-207 -162 -283 -363q-66 -172 -65 -461q0 -645 346 -856l-25 -34q-225 123 -363.5 368.5t-138.5 505.5z" />
<glyph unicode=")" horiz-adv-x="657" d="M66 1352l26 32q502 -324 502 -874q0 -274 -133 -506q-137 -238 -377 -366l-16 34q205 154 282 365q66 174 66 461q0 295 -64 477q-79 232 -286 377z" />
<glyph unicode="*" horiz-adv-x="841" d="M59 788q0 66 117 95q166 45 221 82q-43 27 -217 75q-121 35 -121 95q0 76 72 75q33 0 123 -84q106 -102 158 -129v52q0 45 -26 128t-26 126q0 82 74 81q74 0 74 -79q0 -33 -27.5 -136.5t-27.5 -177.5q33 18 147 127q98 94 131 94q74 0 74 -75q0 -59 -127 -101 q-182 -59 -209 -75q39 -23 119 -56q68 -12 133 -26q86 -27 86 -88q0 -76 -76 -76q-37 0 -129 92q-102 104 -149 125q4 -63 22 -184l21 -60q14 -43 14 -61q0 -33 -22.5 -59.5t-55.5 -26.5t-54.5 24.5t-21.5 59.5q0 31 31 125q31 88 27 147l-2 35q-90 -55 -123 -92l-66 -74 q-49 -49 -88 -49q-76 -1 -76 71z" />
<glyph unicode="+" horiz-adv-x="950" d="M45 866v29q125 12 272 55l27 -8q102 -352 102 -758v-28q119 119 220 258q139 195 139 299q0 33 -17 47l-49 47q-23 23 -22 72q0 70 80 69q53 0 85.5 -37t32.5 -92q0 -133 -157 -370q-86 -125 -156 -203l-147 -166q-106 -119 -144 -119q-20 0 -20 70v65l-6 142l-27 311 l-25 151q-14 94 -34 125q-31 41 -113 41h-41z" />
<glyph unicode="," horiz-adv-x="483" d="M88 94q0 51 35 84t88 33q74 0 120 -56.5t46 -131.5q0 -94 -70.5 -183.5t-161.5 -128.5l-20 39q168 111 168 217q0 27 -31 27q-10 0 -28.5 -3t-24.5 -3q-121 0 -121 106z" />
<glyph unicode="-" horiz-adv-x="567" d="M102 397v131h506v-131h-506z" />
<glyph unicode="." horiz-adv-x="438" d="M98 90q0 47 32 81t79 34t83 -34t36 -81t-34 -80t-81 -33q-49 0 -82 33t-33 80z" />
<glyph unicode="/" horiz-adv-x="610" d="M45 -29l467 1413h141l-467 -1413h-141z" />
<glyph unicode="0" horiz-adv-x="1067" d="M80 678q0 266 98 461q123 246 363 245q244 0 368 -239q98 -188 99 -455q0 -276 -95 -471q-123 -250 -372 -250q-240 0 -363 248q-98 195 -98 461zM279 670q0 -645 266 -645q264 0 264 647q0 657 -272 657q-258 0 -258 -659z" />
<glyph unicode="1" horiz-adv-x="710" d="M84 1169v29l371 186l16 -4v-1245q0 -70 68 -92q33 -10 125 -10v-33h-568v33q100 2 140 22q57 31 57 117v965q0 78 -74 77q-14 0 -61 -18q-56 -23 -74 -27z" />
<glyph unicode="2" horiz-adv-x="946" d="M49 0v25l379 403q252 268 252 508q0 133 -78 214t-209 81q-121 0 -194 -78q-51 -55 -103 -188l-45 12q88 408 428 407q158 0 268.5 -102t110.5 -258q0 -201 -225 -473q-66 -78 -381 -393h524q80 0 156 135l31 -12l-113 -281h-801z" />
<glyph unicode="3" horiz-adv-x="837" d="M63 90q0 31 26 51.5t58 20.5q43 0 136.5 -58.5t162.5 -58.5q117 0 195 96q72 88 72 209q0 326 -422 326l-2 26q141 39 229 117q109 94 109 223q0 98 -61.5 159t-159.5 61q-184 0 -304 -220l-32 11q102 332 407 331q133 0 221 -71q94 -78 95 -207q0 -160 -193 -285 q262 -115 262 -366q0 -231 -166 -363q-152 -121 -389 -121q-244 0 -244 119z" />
<glyph unicode="4" horiz-adv-x="927" d="M51 342v131l641 911h94v-909h207v-133h-207v-342h-159v342h-576zM135 475h490v696z" />
<glyph unicode="5" horiz-adv-x="919" d="M49 98q0 76 82 76q72 0 156 -62.5t147 -62.5q131 0 209 117q68 102 68 240q0 156 -90 253q-78 82 -238 138q-170 59 -262 47l-10 14l227 498h340q94 0 102 2q51 8 80 51l21 -14q-20 -57 -41 -117q-37 -86 -72 -86l-412 2l-86 -174q297 -63 414 -148q172 -125 172 -389 q0 -238 -160 -377q-152 -135 -393 -135q-254 0 -254 127z" />
<glyph unicode="6" horiz-adv-x="958" d="M66 586q0 244 135 442.5t360 294.5q139 59 260 70l62 6q23 2 30 2l2 -35q-231 -35 -399 -192.5t-205 -387.5q164 90 260 91q184 0 289 -123q98 -115 98 -301q0 -211 -114 -342q-121 -139 -328 -140q-229 0 -350 201q-100 168 -100 414zM258 526q0 -184 55 -317 q76 -180 236 -180q221 0 221 346q0 406 -295 405q-123 0 -174 -67q-43 -60 -43 -187z" />
<glyph unicode="7" horiz-adv-x="890" d="M59 1055q53 111 121 301h760q4 -51 -201 -676l-233 -696h-137l405 1218h-469q-74 0 -125 -51q-23 -20 -84 -113z" />
<glyph unicode="8" horiz-adv-x="884" d="M80 311q0 119 84 215q31 33 182 154q-160 150 -172 162q-82 100 -82 217q0 152 123 241q111 84 266 84q145 0 244 -71q111 -82 111 -221q0 -193 -275 -332q162 -129 213 -187q106 -123 107 -254q0 -168 -121 -262q-111 -86 -283 -86q-166 0 -276 84q-121 94 -121 256z M240 326q0 -129 63 -209q70 -88 195 -88q104 0 163.5 65.5t59.5 169.5q0 106 -115 215q-37 35 -205 158q-88 -72 -122 -135q-39 -72 -39 -176zM246 1122q0 -172 256 -323q190 123 190 293q0 106 -60.5 170.5t-166.5 64.5q-94 0 -156.5 -56.5t-62.5 -148.5z" />
<glyph unicode="9" horiz-adv-x="1003" d="M63 901q0 199 113 336q121 147 316 147q219 0 344 -184q111 -162 110 -391q0 -358 -232.5 -596t-590.5 -258l-6 41q223 37 403 205q190 176 215 395q-154 -111 -307 -111q-174 0 -272 125q-93 113 -93 291zM254 977q0 -154 47 -260q66 -141 201 -142q123 0 176 37 q68 45 67 162q0 551 -282 551q-117 0 -170 -125q-39 -90 -39 -223z" />
<glyph unicode=":" horiz-adv-x="387" d="M96 823q0 49 34 83t81 34t82 -35t35 -82q0 -45 -36 -78.5t-83 -33.5q-45 0 -79 33.5t-34 78.5zM98 88q0 49 32 83t79 34q49 0 84 -34t35 -81q0 -45 -35 -79t-82 -34t-80 32t-33 79z" />
<glyph unicode=";" horiz-adv-x="415" d="M88 94q0 51 35 83t88 32q76 0 121 -55.5t45 -133.5q0 -94 -69.5 -181t-162.5 -128l-20 39q168 106 168 217q0 27 -27 27q-8 0 -25.5 -3t-23.5 -3q-129 0 -129 106zM90 823q0 49 33 83t82 34q47 0 80.5 -34t33.5 -81t-34.5 -80.5t-81.5 -33.5q-45 0 -79 33.5t-34 78.5z " />
<glyph unicode="&#x3c;" horiz-adv-x="1468" d="M61 897q35 4 142 29q94 23 133 22q14 0 26 -35q25 -84 54 -315q25 -217 24 -322l404 639l53 25l68 -776q350 393 350 551q0 37 -46 83t-46 76q0 74 88 74q111 0 110 -112q0 -143 -194 -422q-51 -74 -285 -367q-70 -86 -90 -86q-23 0 -31 74q-2 49 -4 96l-55 576 q-412 -745 -443 -746q-25 0 -32 98l-4 127q-10 162 -23 326q-20 223 -49 301q-18 45 -59 51h-86z" />
<glyph unicode="=" horiz-adv-x="845" d="M55 0l172 625q35 129 35 178q0 59 -67 59q-29 0 -80 -10v39l331 57l11 -2l-6 -31l-99 -397l84 156q66 123 182 221q61 51 123 51q102 0 103 -106q0 -111 -101 -111q-55 0 -77 47l-11 25q-6 6 -24 6q-35 0 -105.5 -97.5t-134.5 -226.5q-39 -76 -69 -161q-27 -74 -93 -289 l-8 -33h-166z" />
<glyph unicode="&#x3e;" horiz-adv-x="1572" d="M78 0l186 686q23 86 23 115q0 37 -56 43q-6 2 -81 2v37l346 65l10 -2l-119 -434q150 211 197 264q152 172 272 172q123 0 123 -123q0 -66 -29 -157q-23 -78 -47 -156q266 436 467 436q57 0 93 -38t36 -97q0 -78 -63 -295q-39 -131 -80 -264q-31 -117 -31 -141 q0 -29 29 -29q47 0 178 170l33 -29q-176 -242 -314 -241q-92 0 -92 94q0 78 60 303q41 139 79 276q29 109 29 131q0 47 -43 48q-106 0 -262 -228q-135 -199 -172 -334q-23 -94 -78 -274h-164l172 635q31 111 31 149q0 51 -39 52q-74 0 -211 -156q-217 -250 -319 -680h-164z " />
<glyph unicode="?" horiz-adv-x="759" d="M51 1090q0 133 103 217q94 78 231 77q158 0 262 -84q115 -90 115 -241q0 -121 -78 -234q-78 -100 -158 -202q-92 -133 -114 -287h-37q2 131 98 367.5t96 367.5q0 102 -59 176t-160 74q-61 0 -121 -31q-72 -37 -71 -92q0 -29 39 -73t39 -78q0 -88 -89 -89q-96 1 -96 132z M287 88q0 47 32.5 80t77.5 33q47 0 80 -33t33 -80q0 -45 -32 -74.5t-79 -29.5t-79.5 28.5t-32.5 75.5z" />
<glyph unicode="@" horiz-adv-x="1503" d="M57 657q0 309 219.5 518t530.5 209q274 0 467 -161q205 -170 205 -441q0 -180 -99 -325q-111 -164 -282 -164q-66 0 -118 40t-69 103q-102 -143 -249 -143q-90 0 -140 78q-43 68 -43 161q0 184 109 338q119 170 295 170q57 0 90 -26q20 -18 57 -76l19 74h143 q-39 -147 -80 -293q-61 -231 -61 -275q0 -82 79 -82q121 0 199 152q66 125 66 260q0 227 -178.5 387t-407.5 160q-279 0 -434 -213q-141 -190 -142 -479q0 -254 174.5 -416t430.5 -162q178 0 395 101l24 -64q-137 -68 -215 -90q-100 -29 -233 -29q-301 0 -522 191 q-230 200 -230 497zM625 561q0 -66 26 -115q33 -63 92 -63q115 0 189 178q59 141 59 279q0 41 -18 73q-25 37 -64 37q-117 0 -204 -139q-80 -125 -80 -250z" />
<glyph unicode="A" d="M16 0v41q113 0 197 201l483 1138h43l518 -1185q35 -78 62 -107q41 -43 113 -47v-41h-525v41q68 0 92 8q51 14 52 66q0 41 -50 164q-39 100 -73 163h-533q-33 -82 -65 -161q-45 -117 -45 -158q0 -82 139 -82v-41h-408zM430 528h469l-235 557z" />
<glyph unicode="B" horiz-adv-x="1314" d="M86 0v41h16q87 0 125 20q55 33 56 129v977q0 139 -197 150v39h608q203 0 336 -72q168 -92 168 -276q0 -231 -274 -293v-4q344 -78 344 -344q0 -178 -150 -279q-131 -88 -319 -88h-713zM494 147q0 -70 153 -69q383 0 383 289q0 199 -184 262q-109 39 -352 39v-521z M494 750h88q197 0 274 30q131 53 131 219q0 281 -409 281q-84 0 -84 -47v-483z" />
<glyph unicode="C" horiz-adv-x="1255" d="M55 666q0 319 197 518.5t514 199.5q61 0 177 -33.5t173 -33.5q74 0 90 67h47l19 -460h-51q-98 379 -441 379q-244 0 -374 -195q-111 -168 -111 -426q0 -266 117 -430q133 -190 387 -191q252 0 461 209l38 -39q-201 -260 -561 -260q-307 0 -494.5 193t-187.5 502z" />
<glyph unicode="D" horiz-adv-x="1458" d="M84 0v41q180 0 180 139v1000q0 84 -53 110q-29 16 -127 27v39h598q342 0 545 -185q211 -190 211 -528q0 -297 -221 -475q-205 -168 -508 -168h-625zM475 162q0 -88 100 -88q653 0 654 592q0 299 -169 456.5t-470 157.5q-115 0 -115 -68v-1050z" />
<glyph unicode="E" horiz-adv-x="1290" d="M94 0v41q96 2 138 36t42 126v950q0 100 -45 129q-23 16 -135 35v39h1096l8 -291l-59 -2q-10 47 -45 135q-41 66 -236 82q-47 4 -270 4q-102 0 -103 -70v-464h357q94 0 135 55q31 41 45 143h49v-475h-49q-8 106 -51 154.5t-146 48.5h-340v-537q0 -66 197 -65q244 0 332 35 q135 51 221 239h61l-94 -348h-1108z" />
<glyph unicode="F" horiz-adv-x="1095" d="M66 0v41q94 2 133 29q47 33 47 127v956q0 96 -43 129q-33 25 -137 35v39h1089l8 -293h-53q-43 139 -78 172q-45 41 -186 41l-307 2q-82 0 -82 -49v-475l293 -2q113 0 159.5 41t65.5 155h51v-475h-51q-12 104 -45 143q-41 47 -142 50l-331 6l-2 -461q0 -98 47 -135 q37 -31 139 -35v-41h-575z" />
<glyph unicode="G" horiz-adv-x="1417" d="M72 686q0 303 201.5 500.5t502.5 197.5q68 0 187.5 -33.5t171.5 -33.5q78 0 98 67h47l16 -432h-49q-129 350 -440 351q-248 0 -383 -199q-117 -174 -117 -434q0 -270 129 -434q139 -180 402 -181q150 0 202 31q74 43 74 180l2 266q0 92 -45 123q-31 20 -137 33v37h524 v-37q-92 -4 -125 -51q-19 -32 -18 -437v-85q-86 -66 -242 -107q-139 -37 -264 -37q-336 0 -536.5 189.5t-200.5 525.5z" />
<glyph unicode="H" horiz-adv-x="1548" d="M98 0v41q96 0 138.5 32.5t42.5 125.5v968q0 88 -50 119q-31 18 -131 31v39h572v-39q-100 -12 -131 -31q-49 -31 -50 -119v-430h617v381q0 119 -26.5 150.5t-153.5 48.5v39h571v-39q-111 -14 -141 -39q-39 -35 -39 -139v-930q0 -98 43 -133q37 -33 137 -35v-41h-571v41 q100 2 140 32.5t40 135.5v436h-617v-452q0 -90 52 -123q39 -27 129 -29v-41h-572z" />
<glyph unicode="I" horiz-adv-x="757" d="M98 0v41q106 0 146 22q55 31 55 130v970q0 92 -57 125q-39 23 -144 29v39h613v-39q-106 -6 -144 -27q-57 -33 -57 -127v-970q0 -96 57 -127q39 -23 144 -25v-41h-613z" />
<glyph unicode="J" horiz-adv-x="708" d="M74 125q0 41 30.5 68.5t71.5 27.5q55 0 82 -45q16 -41 31.5 -84t48.5 -43q74 0 74 103v1022q0 86 -56 114q-31 16 -133 29v39h588v-39q-115 -10 -145 -35q-43 -33 -43 -139v-811q0 -158 -92.5 -259.5t-249.5 -101.5q-82 0 -140 35q-67 41 -67 119z" />
<glyph unicode="K" d="M51 0v41q96 2 133 27q49 35 49 129v974q0 86 -51 117q-33 18 -131 29v39h584v-39q-121 -14 -150 -37q-39 -33 -39 -145v-420l295 262q223 209 224 276q0 45 -52 58q-12 2 -88 6v39h541v-39q-104 -14 -149 -33q-55 -25 -123 -90l-428 -422l575 -618q106 -114 204 -114 q10 0 19 1v-41h-628v41h32h10q101 0 101 43q0 76 -205 289q-139 137 -276 276l-52 -43v-383q0 -111 36 -144.5t149 -37.5v-41h-580z" />
<glyph unicode="L" horiz-adv-x="1269" d="M70 0v41q96 2 137 35t41 125v973q0 84 -51 112q-31 20 -127 31v39h579v-39q-104 -12 -135 -31q-55 -31 -55 -121v-999q0 -90 145 -90q276 0 367 30q162 51 246 250h53l-99 -356h-1101z" />
<glyph unicode="M" horiz-adv-x="1892" d="M98 0v41q115 0 160 55q39 51 39 168v887q0 102 -49 133q-33 20 -146 33v39h408l471 -1030l451 1030h409v-39q-106 -16 -135 -37q-43 -33 -43 -129v-942q0 -96 40 -131t138 -37v-41h-575v41q96 2 135 29q51 35 51 125v970l-520 -1165h-31l-512 1120v-856q0 -115 37 -164 q45 -57 156 -59v-41h-484z" />
<glyph unicode="N" horiz-adv-x="1427" d="M84 0v41q117 0 162 55q37 49 37 168v940q-59 68 -84 84q-41 27 -115 29v39h352l785 -985v735q0 113 -42 155t-155 56v39h485v-39q-121 -18 -158.5 -64.5t-37.5 -169.5v-1106h-35l-903 1125v-838q0 -115 39 -164q43 -57 153 -59v-41h-483z" />
<glyph unicode="O" horiz-adv-x="1470" d="M70 674q0 301 178 502q186 209 483 208q307 0 496 -200q182 -197 182 -506q0 -307 -180 -504q-188 -203 -492 -203q-299 0 -485 203q-182 197 -182 500zM305 686q0 -256 90 -424q113 -217 344 -217q229 0 344 211q90 170 91 420q0 254 -91 422q-115 211 -346 211 q-225 0 -340 -209q-92 -168 -92 -414z" />
<glyph unicode="P" horiz-adv-x="1138" d="M70 0v41q88 2 125 27q47 31 47 114v996q0 82 -49 110q-27 14 -123 29v39h567q236 0 340 -80q168 -129 168 -305q0 -205 -180 -305q-143 -78 -367 -78q-63 0 -145 8l2 -391q0 -102 45 -135q39 -29 145 -29v-41h-575zM453 678q80 -6 120 -6q352 0 353 299q0 307 -404 307 q-70 0 -69 -70v-530z" />
<glyph unicode="Q" horiz-adv-x="1445" d="M49 674q0 307 186.5 508.5t489.5 201.5q301 0 487 -206q180 -199 181 -502q0 -256 -140 -451q-152 -207 -397 -239q207 -301 563 -310v-36q-47 -4 -104 -5q-485 0 -697 252l-92 111q-227 66 -354 254q-123 178 -123 422zM285 676q0 -250 94 -418q115 -211 344 -211 t344 211q88 166 88 418t-90 420q-113 213 -344 213t-344 -211q-92 -168 -92 -422z" />
<glyph unicode="R" horiz-adv-x="1390" d="M63 0v41q172 0 173 135v1004q0 84 -50 108q-4 2 -123 29v39h601q180 0 315 -72q168 -90 168 -254q0 -299 -367 -377l346 -426q90 -111 105 -125q66 -59 147 -61v-41h-305l-512 627h-115q1 -23 1 -52t-1 -65q-2 -90 -2 -117q0 -283 41 -316.5t146 -35.5v-41h-568zM446 705 q211 0 318 45q162 70 162 249q0 281 -365 281q-115 0 -115 -63v-512z" />
<glyph unicode="S" horiz-adv-x="1058" d="M88 410h51q147 -367 416 -367q106 0 176 64.5t70 171.5q0 141 -168 253q-158 98 -314 195q-170 131 -169 311q0 156 105 251t261 95q53 0 148.5 -34.5t144.5 -34.5q57 0 65 69h48l45 -436h-56q-27 143 -125 244q-106 109 -247 108q-88 0 -149.5 -50t-61.5 -138 q0 -131 178 -248q164 -100 330 -202q176 -137 176 -322q0 -176 -138 -279q-125 -90 -307 -90q-53 0 -152.5 35t-152.5 35q-61 0 -63 -68h-49z" />
<glyph unicode="T" horiz-adv-x="1167" d="M66 1006l14 350h1155l14 -350h-53q-33 160 -92 212q-57 50 -204 50h-11h-127v-1045q0 -115 47 -151q37 -29 149 -31v-41h-600v41q92 2 134 22q59 31 59 113v1092h-158q-139 0 -196 -64q-49 -53 -78 -198h-53z" />
<glyph unicode="U" horiz-adv-x="1386" d="M57 1317v39h582v-39q-115 -12 -145 -39q-41 -35 -41 -143v-682q0 -389 350 -390q385 0 385 379v648q0 119 -39 168t-154 59v39h480v-39q-66 -10 -89 -17q-49 -14 -73 -45q-37 -49 -37 -409q0 -102 3 -244.5t3 -148.5q0 -233 -140.5 -357.5t-375.5 -124.5q-236 0 -375 117 q-152 125 -151 354v738q0 82 -56 110q-31 19 -127 27z" />
<glyph unicode="V" horiz-adv-x="1320" d="M18 1317v39h547v-39q-76 -4 -98 -8q-55 -16 -55 -68q0 -86 391 -907l180 434q158 389 158 455q0 53 -51 75q-25 10 -97 19v39h422v-41q-88 -4 -135 -70q-16 -25 -63 -143l-445 -1125h-33l-530 1184q-35 76 -75 110t-116 46z" />
<glyph unicode="W" horiz-adv-x="1798" d="M29 1317v39h503v-39q-133 -6 -133 -68q0 -57 148 -434q84 -213 168 -424l219 574q-33 82 -64 161q-49 119 -75 146q-33 33 -136 45v39h547v-39q-156 -4 -155 -74q0 -49 143 -409q90 -223 180 -449l254 688q33 88 33 152q0 80 -141 92v39h407v-39q-72 -12 -103.5 -37 t-58.5 -92q-63 -168 -233 -641l-102 -283q-57 -164 -89 -287h-34q-4 16 -15 50l-311 813l-313 -863h-31l-297 840l-102 299q-82 185 -209 201z" />
<glyph unicode="X" horiz-adv-x="1456" d="M29 0v41q113 6 207 121l411 506l-262 387q-88 129 -135 172q-78 72 -197 90v39h621v-39q-47 -4 -96 -6q-59 -12 -60 -58q0 -63 107 -217q76 -102 153 -207q88 104 176 211q135 166 136 209q0 57 -146 68v39h490v-39q-96 -14 -148 -41q-59 -31 -115 -100l-340 -424 l416 -592q78 -113 203 -119v-41h-608v41h22q133 0 133 63q0 51 -127 240q-86 123 -170 244q-61 -61 -196 -238q-152 -199 -152 -239q0 -70 156 -70v-41h-479z" />
<glyph unicode="Y" horiz-adv-x="1327" d="M25 1315v41h575v-39q-72 -4 -88 -8q-57 -12 -57 -52q0 -53 145 -270q96 -137 191 -274q55 82 108 164q92 137 143 221q70 119 70 153q0 61 -141 66v39h450v-39q-96 -14 -168 -84q-45 -43 -116 -154l-301 -458l2 -439q0 -94 61 -123q39 -16 145 -18v-41h-628v41 q113 0 149 22q57 31 58 134l2 403l-346 508q-63 94 -105 133q-69 68 -149 74z" />
<glyph unicode="Z" horiz-adv-x="1318" d="M96 0v31l895 1245h-461q-297 0 -331 -270h-58l43 350h1078v-33l-883 -1243h557q143 0 213 74q49 51 104 206h50l-48 -360h-1159z" />
<glyph unicode="[" horiz-adv-x="903" d="M74 201q0 145 190 258q94 57 320 139l2 123q4 172 -156 172q-47 0 -92 -25q-53 -27 -53 -69q0 -14 5 -43t5 -43q0 -35 -27.5 -61.5t-64.5 -26.5q-35 0 -61.5 26.5t-26.5 61.5q0 111 116 176q98 53 218 53q303 0 303 -289v-460q0 -96 61 -97q45 0 90 41v-55 q-92 -102 -178 -102q-131 0 -137 149q-168 -150 -297 -149q-96 0 -156.5 62.5t-60.5 158.5zM256 262q0 -72 46 -122t118 -50q76 0 125 68q41 61 41 141v59l-2 189q-328 -115 -328 -285z" />
<glyph unicode="\" horiz-adv-x="862" d="M82 438q0 211 106 350q119 154 324 154q162 0 254 -108q84 -98 96 -267h-635q31 -446 324 -446q184 0 315 217l35 -16q-55 -152 -164 -244q-119 -100 -272 -101q-186 0 -291 142q-92 124 -92 319zM233 635h420q-20 115 -49 162q-47 72 -145 71q-191 0 -226 -233z" />
<glyph unicode="]" horiz-adv-x="626" d="M84 0v33q90 2 123 26q41 31 41 117v522q0 106 -76 107q-25 0 -80 -8v32q14 4 320 113l10 -6v-774q0 -76 39 -105q31 -23 112 -24v-33h-489zM213 1292q0 45 28.5 76t73.5 31q43 0 76 -31t33 -74q0 -45 -31 -75.5t-76 -30.5q-43 0 -73.5 30.5t-30.5 73.5z" />
<glyph unicode="^" horiz-adv-x="964" d="M80 459q0 203 124 343t326 140q209 0 335 -135t126 -346q0 -207 -125 -344t-331 -137q-203 0 -329 137t-126 342zM258 467q0 -168 55 -277q74 -141 224 -141q147 0 219 137q59 111 59 273q0 166 -59 274q-72 137 -221 137q-145 0 -220 -135q-57 -108 -57 -268z" />
<glyph unicode="_" horiz-adv-x="1042" d="M80 891v31h301v-672q0 -61 43 -106.5t102 -45.5q82 0 146 41q72 45 71 123v522q0 61 -49 84q-31 14 -104 19v35h328v-725q0 -106 124 -93v-30q-96 -25 -286 -92l-4 6v166q-76 -86 -129 -121q-78 -53 -168 -53q-104 0 -176 70.5t-72 174.5v551q0 113 -127 115z" />
<glyph unicode="`" horiz-adv-x="681" d="M37 1323q0 66 72 66q45 0 196 -150q94 -100 191 -201h-86q-63 43 -306 193q-67 43 -67 92z" />
<glyph unicode="a" horiz-adv-x="1116" d="M74 221q0 236 188 473q199 254 428 254q133 0 172 -117l21 99q78 10 137 18l18 -6q-205 -774 -204 -817q0 -35 28 -35q27 0 92 66q41 41 82 84l25 -25q-96 -117 -131 -149q-90 -88 -170 -89q-86 0 -86 78q0 68 45 244q-164 -203 -180 -217q-115 -109 -254 -109 q-100 0 -158 76q-53 68 -53 172zM258 223q0 -57 37 -98t94 -41q162 0 305 264q127 236 127 418q0 133 -137 133q-160 0 -301 -264q-125 -234 -125 -412z" />
<glyph unicode="b" horiz-adv-x="950" d="M92 0v47q70 0 94 12q35 18 35 78v649q0 82 -129 91v45h414q135 0 227 -50q117 -66 117 -192q0 -147 -158 -197q203 -57 203 -229q0 -123 -102 -193q-90 -61 -220 -61h-481zM381 109q0 -37 76 -37h51q209 0 209 182q0 125 -115 166q-59 20 -221 24v-335zM381 518h65 q117 0 166 23q76 35 76 135q0 174 -231 174q-45 0 -66 -4l-10 -17v-311z" />
<glyph unicode="c" horiz-adv-x="956" d="M70 453q0 217 133 353t348 136q39 0 115.5 -22.5t115.5 -22.5q43 0 54 45h49l12 -328h-53q-66 252 -285 252q-156 0 -240 -127q-72 -109 -71 -276q0 -172 74 -279q86 -123 249 -123q164 0 308 144l39 -41q-141 -184 -386 -184q-211 0 -336.5 132t-125.5 341z" />
<glyph unicode="d" horiz-adv-x="1040" d="M88 0v47h6q115 0 115 82v666q0 68 -72 77l-49 5v45h408q231 0 372.5 -127t141.5 -357q0 -203 -152 -323q-139 -115 -344 -115h-426zM369 117q0 -47 55 -47q426 0 426 383q0 195 -109.5 297t-306.5 102q-66 0 -65 -35v-700z" />
<glyph unicode="e" horiz-adv-x="913" d="M76 264q0 246 201.5 465t445.5 219q72 0 122 -37t50 -104q0 -305 -610 -408q-20 -82 -21 -131q0 -193 201 -192q137 0 311 162l27 -29q-190 -231 -447 -232q-127 0 -203.5 79t-76.5 208zM301 446q446 111 447 373q0 78 -74 78q-117 0 -236 -172q-84 -123 -137 -279z" />
<glyph unicode="f" horiz-adv-x="882" d="M86 0v47q66 2 93.5 19.5t27.5 74.5v635q0 61 -29 80q-18 14 -92 21v45h741l7 -215h-54q-12 45 -47 114q-27 27 -115 27l-206 2q-47 0 -47 -23v-305l186 -2q72 0 99.5 26.5t39.5 104.5h51v-336h-51q-10 72 -30.5 99.5t-84.5 27.5l-210 4v-296q0 -61 26.5 -81t95.5 -22v-47 h-401z" />
<glyph unicode="g" horiz-adv-x="1003" d="M82 467q0 205 137 340t342 135q41 0 119 -22.5t119 -22.5q45 0 59 45h47l13 -309h-52q-86 233 -284 233q-160 0 -248 -129q-76 -113 -76 -282q0 -174 84 -281q90 -117 260 -117q111 0 147 38q32 34 32 122q0 10 -1 21q-4 135 -4 129q0 72 -65 84q-6 2 -56 8v43h369v-43 q-63 -4 -84 -31q-11 -16 -11 -259q0 -40 1 -87q-133 -102 -346 -102q-229 0 -365.5 130t-136.5 357z" />
<glyph unicode="h" horiz-adv-x="1114" d="M100 0v47q63 0 86 14q33 18 33 80v645q0 72 -69 84q-6 2 -50 7v45h400v-45q-33 -2 -88 -19q-31 -16 -31 -72v-276h389v244q0 80 -17.5 96t-103.5 27v45h402v-45q-37 -2 -95 -23q-27 -20 -26 -86v-618q0 -63 28 -84q23 -16 93 -19v-47h-402v47q72 2 96.5 19.5t24.5 83.5 v280h-389v-293q0 -55 31 -74q25 -14 88 -16v-47h-400z" />
<glyph unicode="i" horiz-adv-x="542" d="M72 88q0 102 85 371.5t85 345.5q0 43 -49 51q-10 2 -84 2v37q84 0 344 53l8 -6l-178 -649q-45 -164 -45 -182q0 -31 30 -31q61 0 178 168l29 -25q-154 -248 -303 -248q-100 0 -100 113zM326 1290q0 47 27.5 81t72.5 34q49 0 81 -33t32 -82q0 -47 -32 -81.5t-79 -34.5 q-45 0 -73.5 34.5t-28.5 81.5z" />
<glyph unicode="j" horiz-adv-x="630" d="M84 92q0 31 22.5 53.5t53.5 22.5q53 0 80 -82q12 -33 26 -33q37 0 37 58v680q0 53 -37 71q-16 6 -86 15v45h406v-45q-37 -2 -97 -21q-29 -18 -28 -86v-539q0 -111 -62 -178q-63 -74 -170 -73q-57 0 -98 26q-47 31 -47 86z" />
<glyph unicode="k" horiz-adv-x="1052" d="M70 0v47q66 2 93 18.5t27 75.5v647q0 72 -71 82q-10 2 -49 7v45h407v-45q-39 -2 -100 -21q-25 -18 -25 -92v-256q324 291 324 336q0 31 -62 33h-30v45h381v-45q-74 -10 -103 -21q-39 -16 -82 -59l-278 -273l377 -405q65 -71 134 -71q9 0 17 1v-49h-440v47h31h11 q54 0 54 19q0 68 -311 362l-23 -18v-252q0 -70 22.5 -89.5t100.5 -21.5v-47h-405z" />
<glyph unicode="l" horiz-adv-x="890" d="M80 0v47q66 2 92.5 19.5t26.5 76.5v648q0 68 -70 79q-10 2 -49 7v45h405v-45q-33 -2 -92 -17q-35 -18 -35 -76v-663q0 -49 88 -49q182 0 240 18q102 35 158 168h55l-70 -258h-749z" />
<glyph unicode="m" horiz-adv-x="1347" d="M98 0v47q80 0 106.5 31t26.5 108v590q0 84 -71 94q-6 2 -58 7v45h289l307 -670l295 670h291v-45q-35 -2 -90 -21q-29 -18 -29 -80v-626q0 -63 26 -82t93 -21v-47h-405v47q68 2 92 16q33 18 33 76v598l-332 -737h-33l-326 709v-523q0 -76 27 -106.5t102 -32.5v-47h-344z " />
<glyph unicode="n" horiz-adv-x="1060" d="M92 0v47q80 0 106.5 29.5t26.5 109.5v621q-39 43 -55 53q-25 14 -78 17v45h250l508 -637v460q0 72 -26.5 96.5t-104.5 35.5v45h342v-45q-82 -12 -106.5 -39t-24.5 -107v-745h-37l-588 729l2 -529q0 -76 25.5 -107.5t101.5 -31.5v-47h-342z" />
<glyph unicode="o" horiz-adv-x="1021" d="M74 274q0 244 196.5 459t438.5 215q145 0 229 -82t84 -227q0 -238 -197.5 -451t-433.5 -213q-139 0 -228 81t-89 218zM262 242q0 -84 52.5 -154t131.5 -70q59 0 140 70q113 96 186 285q70 176 70 334q0 76 -35 131q-39 63 -111 63q-176 0 -313 -250q-121 -216 -121 -409z " />
<glyph unicode="p" horiz-adv-x="794" d="M76 0v47q61 2 86.5 17.5t25.5 66.5v662q0 51 -34 69q-12 6 -78 15v45h385q141 0 235 -60q111 -72 111 -207q0 -264 -377 -264q-39 0 -82 4l2 -250q0 -63 31 -84q23 -14 96 -14v-47h-401zM348 471q47 -4 72 -4q221 0 221 188q0 195 -256 195q-12 0 -27 -4q-10 -12 -10 -33 v-342z" />
<glyph unicode="q" horiz-adv-x="1050" d="M68 457q0 207 127 346t333 139q203 0 329 -139t126 -346q0 -168 -92 -299q-98 -141 -258 -168q141 -184 366 -191v-43q-41 -4 -79 -4q-180 0 -299 53.5t-230 190.5q-156 45 -241 174q-82 121 -82 287zM246 457q0 -164 59 -273q74 -137 221 -137t222 137q57 109 57 273 q0 166 -60 274q-72 139 -219 139q-150 0 -223 -137q-57 -110 -57 -276z" />
<glyph unicode="r" horiz-adv-x="970" d="M78 0v47q115 0 115 80v668q0 51 -37 67l-78 17v43h407q125 0 220 -52q113 -61 112 -178q0 -199 -235 -254l219 -270q61 -74 71 -84q39 -35 99 -37v-47h-217l-340 418h-62q0 -45 -2 -121q-2 -90 -2 -121q0 -72 25.5 -100.5t101.5 -28.5v-47h-397zM352 489q299 0 299 187 q0 176 -233 176q-66 0 -66 -33v-330z" />
<glyph unicode="s" horiz-adv-x="784" d="M92 293h53q96 -244 267 -244q66 0 108.5 40t42.5 106q0 96 -133 180q-180 113 -194 123q-100 86 -101 202q0 109 72 175.5t178 66.5q35 0 98.5 -23.5t96.5 -23.5q29 0 34 47h48l32 -311h-57q-16 96 -78 162q-68 74 -158 73q-55 0 -92 -31.5t-37 -84.5q0 -88 140 -175 q180 -109 204 -129q106 -90 107 -210q0 -121 -94 -193q-86 -63 -209 -63q-37 0 -101.5 23.5t-99.5 23.5q-33 0 -33 -45h-51z" />
<glyph unicode="t" horiz-adv-x="925" d="M76 670l10 252h784l11 -252h-54q-23 109 -59.5 141.5t-138.5 32.5h-72v-686q0 -72 26.5 -90.5t104.5 -20.5v-47h-418v47q63 2 88 12q39 16 39 68v717h-94q-90 0 -125 -43q-29 -33 -49 -131h-53z" />
<glyph unicode="u" horiz-adv-x="1073" d="M90 98q0 109 81 361t81 342q0 47 -47 55h-80l-2 35q106 14 323 57l9 -4q-53 -207 -109 -414q-86 -336 -86 -387t41 -51q131 0 326 359q154 279 211 479h161l-186 -713q-25 -90 -25 -104q0 -29 19 -29q55 0 182 170l31 -23q-72 -117 -121 -165q-84 -84 -180 -84 q-100 0 -101 102q0 76 35 203q27 100 56 198l-9 -2q-127 -219 -204 -317q-154 -193 -295 -193q-111 0 -111 125z" />
<glyph unicode="v" horiz-adv-x="1019" d="M45 877v45h385v-45h-9q-93 0 -93 -41t250 -578q215 514 215 565q0 43 -99 54v45h301v-48q-61 -2 -90 -40q-12 -16 -43 -95l-297 -753h-37l-354 792q-23 49 -48.5 70t-80.5 29z" />
<glyph unicode="w" horiz-adv-x="1368" d="M53 877v45h357v-45q-88 -4 -88 -35q0 -41 200 -543l135 352q-31 86 -90 199q-18 16 -92 27v45h385v-45q-102 -2 -102 -39q0 -29 205 -543q53 135 108 268q74 199 74 262q0 45 -94 52v45h292v-45q-51 -8 -71.5 -22.5t-36.5 -57.5q-215 -541 -287 -811h-39q-25 117 -92 280 q-57 137 -117 275l-202 -555h-35l-201 563q-25 70 -49 141q-29 82 -63 133q-29 46 -97 54z" />
<glyph unicode="x" horiz-adv-x="1064" d="M55 0v47q80 4 140 78l270 330q-72 109 -143 215q-106 154 -160 184q-23 12 -90 23v45h432v-45q-31 -2 -60 -5q-43 -6 -43 -28q0 -72 162 -266q199 233 199 264q0 29 -98 35v45h346v-45q-117 -18 -176 -91l-222 -276l273 -387q49 -72 137 -76v-47h-426v47h27q78 0 77 33 q0 37 -188 305q-221 -260 -221 -301q0 -37 102 -37v-47h-338z" />
<glyph unicode="y" horiz-adv-x="1032" d="M59 874v48h402v-45q-96 0 -96 -31q0 -37 92 -170q59 -86 121 -174q205 313 204 340q0 31 -94 35v45h320v-45q-66 -8 -113 -54q-31 -29 -78 -100l-199 -303l3 -289q0 -76 81 -82q12 -2 56 -2v-47h-439v47q78 0 101 12q37 16 37 82l2 265l-230 335q-86 127 -170 133z" />
<glyph unicode="z" horiz-adv-x="976" d="M98 0v33l584 815h-287q-186 0 -211 -178h-57l31 252h733v-35l-576 -813h351q92 0 137 49q29 31 65 137h52l-35 -260h-787z" />
<glyph unicode="{" horiz-adv-x="1046" d="M45 0v47q78 0 133 127l324 764h41l348 -795q23 -51 41 -69q25 -25 76 -27v-47h-369v47h25q70 0 69 39q0 31 -78 209h-340l-45 -119q-4 -16 -20 -35q-6 -43 -6 -49q0 -45 94 -45v-47h-293zM346 373h283l-142 334z" />
<glyph unicode="|" horiz-adv-x="960" d="M96 0v47q66 2 92.5 20.5t26.5 77.5v631q0 80 -63 92q-16 2 -56 9v45h748l6 -213l-57 -2q-35 104 -69 124.5t-163 20.5q-133 0 -176 -6q-8 -10 -8 -29v-299h225q59 0 84 37q16 25 27 96h51v-336h-51q-4 133 -121 134h-215v-347q0 -33 123 -32q160 0 215 22q84 35 141 160 h62l-68 -252h-754z" />
<glyph unicode="}" horiz-adv-x="577" d="M98 0v47q74 0 97 12q35 18 34 78v647q0 78 -75 88q-10 0 -56 5v45h418v-45q-35 -2 -94 -17q-37 -18 -37 -76v-647q0 -59 37 -78q23 -10 94 -12v-47h-418z" />
<glyph unicode="~" horiz-adv-x="1079" d="M72 877v45h407v-45q-78 -8 -96 -23q-29 -20 -29 -90v-453q0 -250 224 -250q246 0 245 242v432q0 78 -25.5 106.5t-101.5 35.5v45h338v-45q-47 -6 -63 -11q-37 -12 -49 -35q-27 -47 -21 -186q14 -252 12 -289q-14 -377 -360 -376q-160 0 -256 79q-104 86 -104 244v492 q0 66 -72 77q-8 1 -49 5z" />
<glyph unicode="&#xa1;" horiz-adv-x="872" d="M524 860q0 47 34 76t81 29q45 0 77 -29t32 -76t-31 -78.5t-78 -31.5q-49 0 -82 31.5t-33 78.5zM528 -281q0 37 21 213l76 654h30q6 -123 52 -434q43 -279 43 -435q0 -59 -25 -102q-29 -53 -84 -53q-113 -1 -113 157z" />
<glyph unicode="&#xa2;" horiz-adv-x="890" d="M55 446q0 203 123 345q127 152 326 151q33 0 106 -10l88 254h76l-96 -277q154 -53 153 -172q0 -39 -24.5 -66.5t-63.5 -27.5q-70 0 -120 107l-205 -594q61 -25 119 -25q102 0 178 62q53 41 123 145l26 -19q-147 -338 -389 -337q-45 0 -117 18l-100 -283h-72l107 308 q-238 128 -238 421zM215 532q0 -201 137 -329l234 657q-47 20 -92 21q-137 0 -213 -109q-66 -95 -66 -240z" />
<glyph unicode="&#xa3;" horiz-adv-x="970" d="M45 111q0 76 61 118q53 37 134 37q37 0 88 -10q4 18 4 43q0 84 -43 373h-221v94h219q-14 68 -15 139q0 205 97 334q106 145 305 145q100 0 176 -45q90 -53 90 -145q0 -111 -102 -111q-66 0 -76 64q-6 57 -12 117q-20 63 -105 63q-102 0 -153 -88q-41 -72 -41 -182 q0 -123 22 -291h254v-94h-250q4 -59 4 -103q0 -66 -24.5 -184.5t-24.5 -155.5q143 -74 311 -73q74 0 138 34q35 20 84 66q39 35 53 35l8 -10q0 -111 -112.5 -203t-231.5 -92q-96 0 -295 123q-57 -66 -88 -86q-51 -39 -115 -39q-59 0 -99 34t-40 93zM102 119q0 -78 82 -78 q106 0 127 121q-43 29 -112 28q-97 1 -97 -71z" />
<glyph unicode="&#xa4;" horiz-adv-x="1499" d="M-2 442l111 109h141q-12 88 -6 178h-246l111 109h149q53 256 241.5 401t452.5 145q61 0 176 -33.5t175 -33.5q74 0 90 67h47l18 -460h-51q-98 379 -440 379q-201 0 -326 -136q-115 -121 -147 -329h854l-111 -109h-754l-2 -47q0 -57 8 -131h572l-111 -109h-438 q102 -381 473 -381q252 0 461 209l39 -39q-201 -260 -561 -260q-238 0 -410 121q-180 125 -242 350h-274z" />
<glyph unicode="&#xa5;" horiz-adv-x="1146" d="M59 1317v39h500v-39q-133 -2 -133 -62q0 -55 115 -270l151 -270q74 135 146 270q111 217 110 268q0 61 -133 64v39h402v-39q-147 -35 -242 -221l-189 -375h299v-84h-331l-21 -43v-139h352v-84h-352l-2 -174q0 -86 39 -120t127 -36v-41h-502v41q160 0 160 131v199h-356v84 h356v137l-20 45h-336v84h295l-201 366q-63 117 -88 148q-64 78 -146 82z" />
<glyph unicode="&#xa8;" horiz-adv-x="1024" d="M195 1163q0 41 28.5 72t67.5 31q45 0 75.5 -31t30.5 -74q0 -41 -30.5 -71.5t-71.5 -30.5t-70.5 31.5t-29.5 72.5zM600 1161q0 43 28.5 74t69.5 31q43 0 74 -31t31 -74t-30 -72.5t-73 -29.5t-71.5 29.5t-28.5 72.5z" />
<glyph unicode="&#xa9;" horiz-adv-x="2359" d="M135 717q0 2 12 114q31 272 129 435q37 63 109 155q92 123 113 152q45 29 123 65q109 51 127 60h4q20 -2 49 18q23 14 47 31q31 10 94 35l41 2l49 22h67h70q268 0 463 -90q63 -31 226 -167t192 -187q23 -51 68 -150q102 -219 102 -338q0 -8 -6 -28q10 -39 10 -53 q0 -227 -88 -461l-14 -8l-2 -37l-107 -176q-31 -18 -67 -54q-53 -49 -64 -59q-2 0 -192 -133l-11 2q-293 -150 -522 -150q-31 0 -153 27q-115 27 -130 25l-57 32l-18 -2q-35 29 -125 73t-133 81q-18 16 -111 117q-33 31 -88 96q-8 12 -74 153l-16 17q-117 234 -117 381z M301 1079q25 2 49 6q-18 2 -22 2h-6q-2 0 -19 -4zM330 1063l30 2h2l-10 4zM332 1001l2 -40l59 -101h15l6 -16l14 2l8 -15l13 3q43 -53 94 -56l4 15q47 -39 153 -39q8 0 50 4l6 8l-15 -8h-34q-113 0 -191 53q-47 33 -98 104q-45 61 -70 70l-8 16h-8zM373 1030 q209 -27 346 -104l-23 -41q-18 -10 -53 -31q16 -4 23 -10l32 4l50 43l-7 -47l13 -2l28 39l-4 32h10l-147 78l53 6q59 -23 107 -34l2 2l-15 10l21 18l-2 4l-41 -10l-55 12l51 29l-8 6l-25 -22l-43 -13l-49 19q-16 49 -16 55q0 39 12 62l-2 12l-8 -10h-29l-14 -37l12 -49 l39 -39l-103 18q41 -18 90 -22l62 -52q-76 23 -154 45q-90 25 -153 29zM510 1288l22 -22q18 12 27 20l-27 -14v45l-6 10l-16 -6v-33zM537 1491l18 -8l-10 -21l12 -26h21v-6l12 -3l4 -34l22 -15l-4 -16l23 10l16 -24l-16 -19h-2l-21 -14l2 -12l27 6l25 -19l-35 -28l18 8 l23 -17l28 -2l-2 -30q23 -8 68 -50l-12 -14h2l26 14l4 -26l13 -2l8 -19v-12l24 -20v-37l5 -6l8 -64l-6 -12l6 -25l-17 -10l13 -8l-27 -15h2l2 -14l94 -27l27 15l72 8q2 0 147 -27l-2 -16l-135 8q-6 0 -59 -4l-13 -8q90 6 144 6q66 0 92 -14l-6 -11l14 -16l16 4l23 -55 q16 -10 47 -14l53 -45l68 -23v2q-20 29 -62.5 53.5t-76 45t-70.5 61.5q193 -31 268 -82q-66 51 -141 61l2 17h8q76 2 131 -31l-12 14q-47 14 -320 64q-117 23 -125 22q-43 0 -77 -20l-9 26l17 27l29 14l12 41l-8 68l22 -2l-22 22l18 29l27 -20l-13 22l19 14l26 -18v2l-20 23 l22 16l27 -14l-27 32l48 7l14 -15l-2 8l-12 15l18 28h27l18 -24q-4 18 -29 70q25 -23 72 -62l-16 19l24 -5l-30 60l41 -29l24 10l23 -28h2l-6 26h32q14 -18 31 -28l4 10l-29 35l33 2l31 -25l4 -2l-12 8l18 21l39 -25h2l-31 23l33 20l10 -6l7 8h20h-22l-11 25l19 20l-31 -6 l-6 17l-37 -2l22 32l-49 -32l-34 -7l28 43l-94 -63q16 23 41 70l-35 -43h-33v12l-2 2l-61 -49l-4 26l-19 -20h-34l6 16l-25 8l10 41l33 -4l14 23l15 -10h12l14 14l15 -10h10l8 12q14 0 43 -6h6l11 12l18 -18l2 14l51 10l10 -6l5 8l24 -4l10 10l9 -10h2v8l14 27l-10 10 l-17 -2l-16 23l43 24l4 9l-16 8v6l-19 -12l-33 -5v21q-4 -8 -24 -31l-16 -2l-11 10l-16 -12l-82 -8l-6 6l-76 -8l-10 4h-4l-11 -8l-24 2q-25 -14 -88 -14l-17 8q-20 -8 -55 -11l-33 17q-8 -2 -12 -2q-12 0 -50 8t-60.5 8t-70.5 14.5t-75 14.5q-8 0 -27.5 -2t-29.5 -2l4 -6z M543 1227l8 4l10 12h-16zM559 897l21 -68l18 -8l14 15l50 -39q0 20 -76 71q-2 41 -19 70l-6 -2zM608 537v2v-2zM608 657l4 5l9 -23l-3 -4l23 2l-29 -86q12 25 60 76v-37q-47 -59 -47 -101q0 -6 4 -20q0 59 59 127l4 -55l-16 -15q14 -63 14 -65q10 -31 39 -51v-11l4 -2l4 -12 l13 6q20 -4 59 -4q63 0 61 0q29 33 50 76l-2 14l16 31q-8 23 -12 59q-4 49 -7 60q6 20 11 41q0 102 -72 145l-14 -2l-4 8l-27 -20l-14 -62l-11 -14l-6 -2l6 -31l-24 -24l-4 16l-23 -4l-45 16l-31 -2l-4 2l-22 -6q-7 -11 -23 -31zM625 283l12 10h-2v8zM639 1583l14 -8l60 -2 l-39 -14q35 -14 94 -29q76 -14 96 -21l31 2q-78 8 -174 39l4 17q70 -18 121 -19q20 0 35 2l30 -12l25 2q2 0 139 -14q-113 -18 -133 -19l6 -2q47 2 142 11q45 14 139 30l6 8l51 2l31 17l-2 20l31 11v2l-25 10l-4 18l10 8q-8 10 -8 27l4 4l-27 -4l-16 8l-8 25l-31 -12l-22 16 v12l-35 -6l-2 10l-17 -10l-28 14v11l-25 -4l-22 16l-3 8l-14 -16q-96 -4 -213 -49q-100 -45 -198 -88v-5l63 11q86 -23 205 -23q39 0 166 -31l-82 -18q-29 20 -53 21q-10 0 -37 -9q-14 2 -31 2q-14 0 -27 -2q-76 20 -223 37zM655 272l2 -10l5 8l-3 11zM655 1073l4 -14l9 -8 l4 2l-6 6v33l34 6l-4 4q-16 0 -14 0q-4 0 -14 -2l-11 -10zM676 1161q25 -18 72 -51q-27 31 -72 51zM680 330l8 12h2q-6 -6 -10 -12zM680 725l6 -6l2 2zM690 584q27 35 37 57l-8 -14l-25 20l29 31l10 -23l33 2q-4 -33 -39 -75zM692 264l6 17v2q-4 -11 -6 -19zM705 356h10v9z M715 338l4 4h-2zM719 260l18 21l2 14h-2q-6 -12 -18 -35zM739 1346q125 -16 236 -13l-62 -41l-10 17l-33 -2l-12 6l-29 -4zM743 322l2 -3q10 2 25 13v4l-8 4h-6q-9 -8 -13 -18zM745 233q2 10 9 33l18 -30l6 4v6l-14 16l16 8l2 13l23 -11h12v9v4l-10 18h-10l-9 -12l-12 10 l-6 -6l-8 -16l-8 -9l-9 -34v-3zM758 92l8 2l14 12l-10 -2zM791 -31l28 17h6l4 18l11 4v6l-9 -2l-4 -10l-18 -4zM793 111l6 -9l6 7v10l-2 6l-4 -14h-6zM801 1653q96 61 235 61q23 0 47 -2q-100 -36 -282 -59zM807 858q33 -2 94 -18l4 4q-25 18 -80 18q-2 0 -18 -4zM813 47 q14 20 23 37l28 -6l-18 -25v-2l20 12v-32l-2 -2l15 6l8 -8h8q12 8 31.5 39.5t19.5 48.5l-2 14l-4 4l-31 2l-2 -2l33 -2l2 -14l-20 -51l-23 -21l-18 21l20 24v2l-22 -12l-13 31l4 10q-6 -2 -12 -6l-8 -29l-33 -6l19 37l-5 -2l-16 -31q2 -14 2 -18q0 -7 -4 -19zM831 1628 q45 2 62 2h20q72 0 101 -14l-21 -17zM834 217l12 2l6 -16q10 20 12 51l2 2l23 -33q-8 -23 -10 -41l2 -8q18 20 24 70l-4 10l-4 2l-10 16q-10 -6 -29 -22l-6 6q-12 -19 -18 -39zM836 -55q4 -14 4 -33l4 10l-4 29zM836 154l4 -2l4 2h-4h-4zM838 119h2h-2zM872 125l9 2l-4 2z M879 -39l8 4l14 15l25 2l2 4l24 22h19l6 12l10 5l10 -5l13 11q2 10 4 24l-19 -6l-10 19v36l-4 9l-16 -29v-27l6 4l2 -36l-29 -13l2 31l-14 -29q-27 -23 -45 -32zM887 -88l4 -6v18l29 2q2 -29 0 -47l6 10l8 -10l4 4q2 31 16 47l15 4l-4 11l26 22l10 -26l11 10l8 -55 q12 -6 12 -17l-4 -10v-14l10 20l-6 19l12 32l25 2q2 -4 2 -14v-14q0 -6 -3 -16.5t-3 -16.5v-8l4 16l4 -2v6l12 25l23 2l-4 2l-8 -2l-17 6l-2 39l6 2h-4l-2 -2l-6 -14l-20 -3l-31 15l-2 24l8 9l-2 4l-14 10h-2l-2 -23l-25 7v4l-4 -2l-2 -7l-33 -20l-18 -2v-6l-27 -6l-8 10 l2 -12q0 -17 -4 -27zM926 178l6 -4l8 6l8 53l21 -24l8 -39h2l14 27q2 25 2 28q0 8 -6 33l-6 -8l-14 12v8l-11 -34l-26 53q2 -33 -6 -84v-27zM936 811l8 -16l-2 51l-4 -4zM936 1384l154 23l-33 -35q-31 -2 -29 -2q-4 0 -92 14zM967 815q43 -72 77 -119l95 -51l-88 12 q-20 14 -70 68q39 -55 66 -74q72 -6 141 -41h20q33 -16 92 -24v2q100 -16 160 -19q-55 12 -112 25q-49 12 -109 43h-4l-12 8l12 -4q-4 20 -10 35l6 16l-31 23l-10 65q-25 25 -47 37l-47 2l-37 -12l2 -6l24 2l27 -25l-25 -8l27 -12l39 -2l12 -45l29 -21l-18 -16h-5l9 -12 l-47 6q-14 12 -48 32q-8 18 -41 35q-12 41 -30 82l-8 -2l8 -39l-43 41h-2zM973 -123q-2 -4 10 -29q4 16 4 25l-8 41l12 14l-14 -8zM991 1669l84 6l107 -37q-27 -4 -49 -4q-72 0 -142 35zM1004 600q0 -88 24 -115l8 4q8 33 8 39t-2 15v16l-22 39l-16 8v-6zM1020 115l2 -9h2v3 zM1022 221l12 -6l-8 -51v-4l12 6q2 14 19 33h28l-6 -23v-4q0 20 15 53l-11 11v14h-10l-2 -14l-29 -7q0 41 -12 70q-2 -25 -8 -78zM1083 68l2 -9h2l3 4zM1098 -4l2 -35h2v-4v23zM1116 930q18 -8 51 -25l7 4h6l-2 4l-48 33l-8 -14zM1122 180l4 -4l4 -22q16 31 9 71l14 33v2 q-17 -35 -31 -80zM1126 582l4 -15l37 -51l2 -24l17 -5l8 -20l-18 -14l-13 2l11 -9l32 5l15 -13l-29 -28q-16 6 -18 6l-13 -2l4 -4v-9l21 -8l-15 -28l25 10l-2 -27l8 14l27 -4l-8 -30l22 30l2 -51l6 4l13 45l26 -20l2 -12l2 4l-2 24l29 -24l8 -21v39l39 -41l-2 25 q23 -6 39 -6l-33 24q23 10 47 10l-8 11l19 8v4l-17 12l17 8l-9 2v17l-39 10l19 10h-2l-10 6l4 13l-2 2l-21 6l10 8l-6 2l-35 -6l11 31l-27 -17l-8 23l10 14h-6l2 -4l-33 -2l-8 19v-5l-41 21l-22 2l-11 14l-71 17zM1174 182l6 2q4 20 4 27v12l-10 -35v-6zM1190 -86l2 -29 q4 16 4 23v10v8zM1196 956l2 -4l14 2l72 52l-43 -58l12 -6l-8 -16l8 2l47 -25l-36 -8l-35 14q18 -14 55 -20q29 -4 59 -6q66 -14 123 -41l25 22l-4 29l10 2h-12l-21 -21q-45 -4 -47 -4q-4 0 -24 2q-55 27 -64 66l12 37l-6 20l58 45l32 2l43 -24l19 2l22 -12h2l-36 32l-13 -4 q-33 27 -57 27l2 6q-121 -14 -199 -88zM1227 -115v-22l2 4zM1245 1212l12 -10l-8 12zM1249 637q94 -23 135 -19l91 -49l18 11l8 12q-20 4 -51 16l43 25l2 12l-6 25h-4l-4 -8l2 -11l-39 -22h-10q-16 0 -50 -2t-51 -2q-4 0 -63 16zM1276 -119v-10v10zM1284 543l21 16l-2 8 l-7 -8h-4zM1309 545l12 8h-12v-8zM1333 -80v-8q0 -4 4 -18l9 -11q-5 23 -13 37zM1337 539l6 2v4zM1360 1110l4 -6q14 4 41 12q-23 -2 -41 -2zM1362 524l6 4l4 11v2q-6 -9 -10 -17zM1374 958l6 -22l13 -16l6 -2l8 4q-4 2 -14 4l-15 22l17 33l32 -2l-10 10h-16q-11 -6 -27 -31 zM1427 1143q2 0 54 6l2 2q-4 0 -8 2q-13 0 -48 -10zM1458 1110l47 2l4 2l-14 6l-37 -6v-4zM1473 748l14 -35l2 2zM1511 807l2 -14l11 -7l2 5zM1520 690l18 -4l4 -33l4 -2l4 -24l-4 -9l2 -10l8 2l9 -18h14l20 22l23 11l6 24l14 13h9l-4 16l18 31l25 16l-2 10l22 13l-16 2v24 l-2 -2l-27 -20l-8 18l8 10l-8 2l-6 -16l-33 -21l2 29l6 6q2 14 2 19v2l-12 -27l2 -22l-19 -13l-22 43q8 41 8 39v37l-12 -49q-4 18 -14 53l-9 -49l25 -10l2 -17l-12 -6l4 -14l-15 -10l-10 4q0 -16 -2 -31l14 -8l-16 -27l-12 6zM1534 799l6 20l-6 23v-43zM1667 666h4l8 10 q-4 -4 -12 -10zM1671 788l19 23l2 16q-13 -14 -21 -39z" />
<glyph unicode="&#xaa;" horiz-adv-x="1116" d="M74 221q0 236 188 473q199 254 428 254q133 0 172 -117l21 99q78 10 137 18l18 -6q-205 -774 -204 -817q0 -35 28 -35q27 0 92 66q41 41 82 84l25 -25q-96 -117 -131 -149q-90 -88 -170 -89q-86 0 -86 78q0 68 45 244q-164 -203 -180 -217q-115 -109 -254 -109 q-100 0 -158 76q-53 68 -53 172zM258 223q0 -57 37 -98t94 -41q162 0 305 264q127 236 127 418q0 133 -137 133q-160 0 -301 -264q-125 -234 -125 -412z" />
<glyph unicode="&#xab;" horiz-adv-x="960" d="M63 465q43 33 248 217q84 80 191 172q18 0 18 -23q0 -25 -260 -368q6 -10 148 -189q115 -145 114 -178q0 -29 -22 -28q-6 0 -209 188q-226 207 -228 209zM457 465q201 186 436 389q20 0 20 -23q0 -25 -260 -368q6 -8 148 -189q113 -141 112 -178q0 -29 -20 -28 q-6 0 -211 188z" />
<glyph unicode="&#xad;" horiz-adv-x="567" d="M102 397v131h506v-131h-506z" />
<glyph unicode="&#xae;" horiz-adv-x="784" d="M84 0v33q143 10 143 106v580q0 88 -69 88q-27 0 -70 -10v34q102 33 303 111l10 -4l2 -180q74 92 105 121q70 63 139 63q115 0 115 -113q0 -90 -88 -90q-27 0 -70 37t-61 37q-39 0 -90.5 -59.5t-51.5 -96.5v-489q0 -82 54 -113q39 -23 123 -22v-33h-494z" />
<glyph unicode="&#xb0;" horiz-adv-x="3975" d="M135 897h68l14 -305l21 305h59l22 -303l15 303h67l-53 -451h-53l-27 287l-26 -287h-54zM205 1462q0 94 31 180q41 115 116 115q76 0 117 -115q31 -86 31 -180t-31 -180q-41 -117 -117 -117t-116 117q-31 86 -31 180zM233 1462q0 -76 25 -145q33 -94 94 -94t94 94 q25 70 25 145q0 76 -25 146q-33 92 -94 92t-94 -92q-25 -70 -25 -146zM281 1460q0 166 73 166q47 0 66 -94l-33 -14q-10 53 -33 53q-41 0 -41 -109q0 -111 37 -110q29 0 37 67l33 -22q-16 -100 -66 -101q-73 0 -73 164zM416 897h67l15 -305l20 305h62l20 -303l16 303h66 l-53 -451h-54l-24 287l-29 -287h-53zM532 1180q76 268 76 432q0 66 -39 65q-20 0 -37 -18v76q35 31 66 30q90 0 90 -141q0 -113 -57 -367h63v-77h-162zM557 -281v582h78v-260h41v260h78v-582h-78v246h-41v-246h-78zM698 897h66l14 -305l21 305h61l23 -303l14 303h66 l-52 -451h-55l-25 287l-26 -287h-53zM721 1468q0 297 104 297t105 -301q0 -289 -101 -288q-108 -1 -108 292zM795 -281v582h77v-504h48v-78h-125zM803 1481q0 -186 24 -215q20 33 21 196q0 176 -23 213q-22 -28 -22 -194zM936 -57q0 227 82 227q86 0 86 -227t-82 -228 q-86 1 -86 228zM956 1468q0 297 105 297q104 0 104 -301q0 -289 -98 -288q-111 -1 -111 292zM977 487q0 43 43 43t43 -43q0 -41 -43 -41t-43 41zM1004 -51q0 -141 16 -156q16 18 16 150q0 139 -16 151q-16 -12 -16 -145zM1038 1481q0 -186 25 -215q20 33 20 196 q0 176 -22 213q-23 -28 -23 -194zM1087 451v581h66v-155q23 27 49 26q53 0 53 -86v-366h-65v362q0 23 -16 23q-12 -4 -21 -15v-370h-66zM1133 -281v582h65v-156q23 27 49 27q53 0 53 -84v-369h-65v365q0 20 -16 20q-12 -4 -21 -12v-373h-65zM1178 1233q55 66 92 166 q-86 66 -86 180q0 61 18 115q29 70 80 69q55 0 84 -73q20 -53 20 -119q0 -96 -48 -215t-113 -189zM1262 1591q0 -72 32 -108q12 35 13 96q0 70 -25 94q-20 -16 -20 -82zM1294 645v55q0 201 138 201h30q0 20 -4 -115q-2 -109 0 -176q4 -94 21 -106l-37 -58q-23 4 -37 39 q-18 -39 -45 -39q-66 0 -66 199zM1325 123l43 49q18 -4 33 -31q25 31 51 31q55 0 55 -80v-373h-67v367q0 18 -17 18q-10 0 -18 -10v-375h-66v369q0 25 -14 35zM1362 623q0 -111 22 -111l11 4v301q-33 -10 -33 -112v-82zM1487 852l41 49q37 -12 41 -63q49 63 65 63v-84 q-23 -4 -44 -27.5t-21 -46.5v-292h-66v366q0 23 -16 35zM1530 1180v581h78v-260h41v260h77v-581h-77v245h-41v-245h-78zM1540 -6q0 176 84 176t84 -129q0 -119 -96 -143q0 -37 14 -70q16 -39 49 -39q10 0 29 8v-76q-14 -6 -35 -6q-129 0 -129 226v53zM1608 29v-58 q33 10 32 68q0 43 -14 63q-18 -30 -18 -73zM1651 674q0 227 82 227q86 0 86 -227t-82 -228q-86 1 -86 228zM1718 680q0 -141 17 -158q16 18 16 150q0 141 -16 151q-17 -10 -17 -143zM1722 123l41 47q37 -12 41 -64q49 63 66 64v-82q-25 -4 -45.5 -27.5t-20.5 -48.5v-293h-65 v367q-1 23 -17 37zM1765 1376v54q0 203 138 202h32q0 20 -4 -114q-2 -111 0 -177q4 -94 21 -106l-39 -59q-20 6 -35 38q-18 -39 -47 -38q-66 -1 -66 200zM1835 1352q0 -111 23 -111l10 6v301q-33 -10 -33 -114v-82zM1853 506v526h66v-491q0 -37 20 -45l-51 -50 q-35 11 -35 60zM1898 -23q0 90 25 170q35 115 102 115q59 0 89 -86q20 -61 20 -137q0 -55 -14 -115q-18 -82 -54 -82q-31 0 -26 68q-14 -68 -43 -68q-41 0 -41 117q0 49 12 102q18 76 51 76q27 0 31 -57l6 45h27q-23 -188 -23 -199q0 -25 13 -30q35 0 34 147q0 168 -79 168 q-55 0 -84 -94q-18 -66 -19 -142q0 -74 19 -133q25 -86 77 -86q43 0 80 70l10 -41q-41 -80 -94 -80q-66 0 -96 107q-23 75 -23 165zM1960 614v80q0 207 102 207v131h66v-475q0 -39 16 -53l-39 -60q-27 8 -34 41q-25 -41 -46 -41q-65 0 -65 170zM1960 1583l41 49 q37 -14 41 -63q49 63 65 63v-84q-25 -4 -45 -27.5t-20 -45.5v-295h-66v368q0 21 -16 35zM1989 -47q0 -49 18 -59q14 0 27 65q8 51 8 84q0 37 -17 45q-18 0 -28 -59q-8 -43 -8 -76zM2028 625q0 -115 22 -115l12 6v303q-35 -10 -34 -102v-92zM2124 1403q0 229 82 229 q86 0 86 -229q0 -227 -82 -227q-86 0 -86 227zM2157 457v67q10 -12 26 -12q33 0 33 33q0 43 -29.5 127t-29.5 129q0 100 69 100q18 0 45 -14v-62q-12 12 -24 13q-27 0 -27 -35q0 -43 28.5 -127t28.5 -127q0 -102 -75 -103q-25 1 -45 11zM2171 -31q0 201 137 201h31 q0 23 -2 -115q-4 -109 0 -176q4 -92 20 -106l-39 -58q-20 6 -34 39q-18 -39 -48 -39q-66 0 -65 201v53zM2191 1411q0 -143 17 -158q16 18 16 150q0 139 -16 151q-17 -12 -17 -143zM2238 -27v-82q0 -111 23 -110l12 4v303q-35 -13 -35 -115zM2296 365v73q29 0 28 58v346h-28 v55h28q0 141 86 137h13v-63q-27 -2 -31 -27q-2 -6 -2 -47h33v-55h-33v-357q0 -120 -94 -120zM2324 1235v526h68v-489q0 -37 21 -47l-52 -49q-37 12 -37 59zM2367 -57q0 227 84 227t84 -227t-79 -228q-89 1 -89 228zM2433 1346v79q0 207 100 207v129h68v-473q0 -41 16 -55 l-39 -57q-27 6 -36 38q-23 -39 -43 -38q-66 0 -66 170zM2437 -51q0 -141 17 -156q14 18 14 150q0 139 -14 151q-17 -12 -17 -145zM2441 674q0 227 84 227t84 -227t-82 -228q-86 1 -86 228zM2501 1354q0 -113 22 -113q6 0 10 6v303q-33 -10 -32 -102v-94zM2509 680 q0 -141 16 -158q16 18 17 150q0 141 -17 151q-16 -10 -16 -143zM2570 -225v526h68v-489q0 -37 20 -48l-53 -49q-35 13 -35 60zM2626 854l43 47q18 -4 32 -31q25 31 52 31q55 0 55 -78v-372h-68v366q0 18 -16 19q-10 0 -19 -11v-374h-65v366q0 27 -14 37zM2669 -242 q0 43 43 43t43 -43t-43 -43t-43 43zM2728 1180v581h78v-504h45v-77h-123zM2771 -18q0 190 94 190q14 0 31 -6v-68q-12 6 -17 6q-41 0 -40 -122v-68q0 -131 34 -131q16 0 23 10v-65q-16 -14 -33 -15q-92 0 -92 203v66zM2832 842v18q23 25 82 111h19v-74h35v-55h-35v-307 q0 -23 20 -23q2 0 15 4v-57q-18 -12 -37 -13q-63 0 -64 78v318h-35zM2867 1403q0 229 84 229t84 -229q0 -227 -80 -227q-88 0 -88 227zM2914 -57q0 227 84 227t84 -227t-80 -228q-88 1 -88 228zM2937 1411q0 -143 16 -158q16 18 17 150q0 139 -17 151q-16 -12 -16 -143z M2984 -51q0 -141 16 -156q16 18 17 150q0 139 -17 151q-16 -12 -16 -145zM2986 457v67q10 -12 27 -12q33 0 32 33q0 43 -29.5 127t-29.5 129q0 100 68 100q20 0 47 -14v-62q-14 12 -27 13q-27 0 -27 -35q0 -43 30 -127t30 -127q0 -102 -76 -103q-25 1 -45 11zM3066 1180v581 h65v-155q23 27 47 26q55 0 56 -84v-368h-68v364q0 23 -16 23q-10 -6 -19 -15v-372h-65zM3107 125l39 47q27 -8 35 -35q23 35 53 35q29 0 47 -33q25 33 53 33q51 0 51 -82v-371h-65v361q0 25 -17 24q-12 -4 -18 -14v-371h-66v363q0 23 -16 22q-12 -4 -18 -14v-371h-68v379 q0 17 -10 27zM3121 487q0 43 43 43t43 -43q0 -41 -43 -41t-43 41zM3224 647v66q0 188 96 188q14 0 31 -4v-70q-14 6 -19 7q-41 0 -41 -121v-68q0 -131 37 -131q16 0 23 8v-65q-16 -12 -33 -13q-94 0 -94 203zM3258 1583l41 49q20 -4 35 -30q25 31 51 30q53 0 54 -78v-374 h-68v366q0 20 -16 21q-8 0 -17 -13v-374h-67v368q-1 27 -13 35zM3369 674q0 227 82 227q86 0 86 -227t-82 -228q-86 1 -86 228zM3437 680q0 -141 16 -158q16 18 16 150q0 141 -16 151q-16 -10 -16 -143zM3473 1403v51q0 178 84 178q82 0 82 -131q0 -119 -94 -143 q-2 -37 12 -70q18 -39 52 -39q8 0 28 8v-75q-14 -6 -37 -6q-127 0 -127 227zM3541 1432q33 12 33 67q0 43 -15 64q-18 -31 -18 -74v-57zM3559 854l39 47q29 -8 37 -33q23 33 51 33q31 0 48 -31q27 31 53 31q53 0 53 -82v-368h-68v360q0 23 -16 23q-10 -4 -16 -13v-370h-68 v362q0 20 -16 21q-10 -4 -19 -13v-370h-65v376q-1 19 -13 27zM3656 1583l39 49q37 -14 43 -63q47 63 63 63v-84q-23 -4 -43 -27.5t-20 -45.5v-295h-68v368q0 21 -14 35z" />
<glyph unicode="&#xb2;" horiz-adv-x="946" d="M49 0v25l379 403q252 268 252 508q0 133 -78 214t-209 81q-121 0 -194 -78q-51 -55 -103 -188l-45 12q88 408 428 407q158 0 268.5 -102t110.5 -258q0 -201 -225 -473q-66 -78 -381 -393h524q80 0 156 135l31 -12l-113 -281h-801z" />
<glyph unicode="&#xb3;" horiz-adv-x="837" d="M63 90q0 31 26 51.5t58 20.5q43 0 136.5 -58.5t162.5 -58.5q117 0 195 96q72 88 72 209q0 326 -422 326l-2 26q141 39 229 117q109 94 109 223q0 98 -61.5 159t-159.5 61q-184 0 -304 -220l-32 11q102 332 407 331q133 0 221 -71q94 -78 95 -207q0 -160 -193 -285 q262 -115 262 -366q0 -231 -166 -363q-152 -121 -389 -121q-244 0 -244 119z" />
<glyph unicode="&#xb4;" horiz-adv-x="681" d="M168 1067q332 350 393 350q68 0 68 -63q0 -51 -66 -94q-102 -63 -305 -193h-90z" />
<glyph unicode="&#xb5;" horiz-adv-x="1691" d="M84 0v33q143 0 143 110v588q0 92 -71 92q-23 0 -66 -10v37q41 10 287 92l16 -4v-152q129 90 148 103q92 53 168 53q164 0 219 -170q152 170 329 170q119 0 183 -98q57 -86 57 -211v-500q0 -61 43 -82q29 -14 98 -18v-33h-450v33q135 2 135 90v545q0 168 -152 168 q-127 0 -223 -125v-529q0 -150 148 -149v-33h-461v33q139 0 139 112v521q0 70 -36 119t-103 49q-143 0 -234 -117v-586q0 -98 140 -98v-33h-457z" />
<glyph unicode="&#x3bc;" horiz-adv-x="1691" d="M84 0v33q143 0 143 110v588q0 92 -71 92q-23 0 -66 -10v37q41 10 287 92l16 -4v-152q129 90 148 103q92 53 168 53q164 0 219 -170q152 170 329 170q119 0 183 -98q57 -86 57 -211v-500q0 -61 43 -82q29 -14 98 -18v-33h-450v33q135 2 135 90v545q0 168 -152 168 q-127 0 -223 -125v-529q0 -150 148 -149v-33h-461v33q139 0 139 112v521q0 70 -36 119t-103 49q-143 0 -234 -117v-586q0 -98 140 -98v-33h-457z" />
<glyph unicode="&#xb7;" horiz-adv-x="305" d="M96 518q0 47 32 82t79 35q49 0 84 -34t35 -81t-33 -79.5t-82 -32.5q-47 0 -81 31.5t-34 78.5z" />
<glyph unicode="&#x2219;" horiz-adv-x="305" d="M96 518q0 47 32 82t79 35q49 0 84 -34t35 -81t-33 -79.5t-82 -32.5q-47 0 -81 31.5t-34 78.5z" />
<glyph unicode="&#xb8;" horiz-adv-x="897" d="M41 -8l664 796h-345q-92 0 -139 -124l-37 10l68 246h631l-643 -762q117 -23 196 -99q51 -63 102.5 -125.5t112.5 -62.5q55 0 56 33q0 16 -15.5 49t-15.5 51q0 66 76 66t75 -78q0 -74 -65.5 -120t-140.5 -46q-86 0 -231.5 92t-231.5 92q-41 0 -99 -39z" />
<glyph unicode="&#xb9;" horiz-adv-x="710" d="M84 1169v29l371 186l16 -4v-1245q0 -70 68 -92q33 -10 125 -10v-33h-568v33q100 2 140 22q57 31 57 117v965q0 78 -74 77q-14 0 -61 -18q-56 -23 -74 -27z" />
<glyph unicode="&#xba;" horiz-adv-x="1021" d="M74 274q0 244 196.5 459t438.5 215q145 0 229 -82t84 -227q0 -238 -197.5 -451t-433.5 -213q-139 0 -228 81t-89 218zM262 242q0 -84 52.5 -154t131.5 -70q59 0 140 70q113 96 186 285q70 176 70 334q0 76 -35 131q-39 63 -111 63q-176 0 -313 -250q-121 -216 -121 -409z " />
<glyph unicode="&#xbb;" horiz-adv-x="862" d="M63 829q0 23 21 23q6 0 203 -182q213 -197 233 -215q-61 -51 -215 -197q-137 -129 -221 -190q-10 2 -18 10v10q0 23 129 197q119 160 133 174q-68 82 -138 166q-127 157 -127 204zM455 831q0 20 22 21q6 0 203 -182q213 -197 233 -215l-26 -23q-197 -178 -410 -364 q-10 2 -18 10v10q0 27 129 197q117 158 133 174l-14 16q-252 288 -252 356z" />
<glyph unicode="&#xbf;" horiz-adv-x="1271" d="M651 -121q0 121 80 234q78 100 156 202q92 133 114 287h37q0 -131 -97 -367.5t-97 -367.5q0 -102 60.5 -176t158.5 -74q63 0 123 31q70 37 69 92q0 29 -38.5 73t-38.5 78q0 88 88 89q96 0 96 -132q0 -133 -98.5 -213.5t-235.5 -80.5q-156 0 -262 84q-115 89 -115 241z M903 850q0 45 33 74.5t78 29.5q49 0 80.5 -28.5t31.5 -75.5t-31.5 -80t-78.5 -33t-80 33t-33 80z" />
<glyph unicode="&#xc0;" d="M16 0v41q113 0 197 201l483 1138h43l518 -1185q35 -78 62 -107q41 -43 113 -47v-41h-525v41q68 0 92 8q51 14 52 66q0 41 -50 164q-39 100 -73 163h-533q-33 -82 -65 -161q-45 -117 -45 -158q0 -82 139 -82v-41h-408zM430 528h469l-235 557zM508 1800q0 66 72 66 q45 0 196 -150q94 -100 191 -201h-86q-63 43 -306 193q-67 43 -67 92z" />
<glyph unicode="&#xc1;" d="M16 0v41q113 0 197 201l483 1138h43l518 -1185q35 -78 62 -107q41 -43 113 -47v-41h-525v41q68 0 92 8q51 14 52 66q0 41 -50 164q-39 100 -73 163h-533q-33 -82 -65 -161q-45 -117 -45 -158q0 -82 139 -82v-41h-408zM430 528h469l-235 557zM510 1520q332 350 393 350 q68 0 68 -63q0 -51 -66 -94q-102 -63 -305 -193h-90z" />
<glyph unicode="&#xc2;" horiz-adv-x="1572" d="M78 0l186 686q23 86 23 115q0 37 -56 43q-6 2 -81 2v37l346 65l10 -2l-119 -434q150 211 197 264q152 172 272 172q123 0 123 -123q0 -66 -29 -157q-23 -78 -47 -156q266 436 467 436q57 0 93 -38t36 -97q0 -78 -63 -295q-39 -131 -80 -264q-31 -117 -31 -141 q0 -29 29 -29q47 0 178 170l33 -29q-176 -242 -314 -241q-92 0 -92 94q0 78 60 303q41 139 79 276q29 109 29 131q0 47 -43 48q-106 0 -262 -228q-135 -199 -172 -334q-23 -94 -78 -274h-164l172 635q31 111 31 149q0 51 -39 52q-74 0 -211 -156q-217 -250 -319 -680h-164z " />
<glyph unicode="&#xc3;" d="M16 0v41q113 0 197 201l483 1138h43l518 -1185q35 -78 62 -107q41 -43 113 -47v-41h-525v41q68 0 92 8q51 14 52 66q0 41 -50 164q-39 100 -73 163h-533q-33 -82 -65 -161q-45 -117 -45 -158q0 -82 139 -82v-41h-408zM430 528h469l-235 557zM412 1509q45 209 213 209 q61 0 154.5 -46t130.5 -46q78 0 116 94q0 2 2 9h62q-57 -217 -217 -217q-68 0 -162 47t-125 47q-80 0 -111 -97h-63z" />
<glyph unicode="&#xc4;" d="M16 0v41q113 0 197 201l483 1138h43l518 -1185q35 -78 62 -107q41 -43 113 -47v-41h-525v41q68 0 92 8q51 14 52 66q0 41 -50 164q-39 100 -73 163h-533q-33 -82 -65 -161q-45 -117 -45 -158q0 -82 139 -82v-41h-408zM430 528h469l-235 557zM431 1595q0 41 28.5 72 t67.5 31q45 0 75.5 -31t30.5 -74q0 -41 -30.5 -71.5t-71.5 -30.5t-70.5 31.5t-29.5 72.5zM836 1593q0 43 28.5 74t69.5 31q43 0 74 -31t31 -74t-30 -72.5t-73 -29.5t-71.5 29.5t-28.5 72.5z" />
<glyph unicode="&#xc5;" d="M16 0v41q113 0 197 201l483 1138h43l518 -1185q35 -78 62 -107q41 -43 113 -47v-41h-525v41q68 0 92 8q51 14 52 66q0 41 -50 164q-39 100 -73 163h-533q-33 -82 -65 -161q-45 -117 -45 -158q0 -82 139 -82v-41h-408zM430 528h469l-235 557zM522 1710q0 86 58.5 146.5 t144.5 60.5q88 0 148.5 -59.5t60.5 -147.5q0 -86 -60.5 -144t-146.5 -58q-84 0 -144.5 59t-60.5 143zM596 1710q0 -55 38 -93t93 -38t94 39t39 94q0 57 -39 95t-96 38q-55 0 -92 -40t-37 -95z" />
<glyph unicode="&#xc6;" horiz-adv-x="1818" d="M51 0v41q104 14 160 121q145 281 289 559q252 489 252 522q0 70 -187 70v43h1157v-289h-49q-12 86 -33 123q-53 92 -307 92h-76q-47 -2 -61 -2h-80q-45 -8 -45 -49v-481h281q111 0 154.5 43t58.5 155h45v-479h-45q-10 111 -47 154q-43 51 -148 51h-299v-518q0 -53 25 -68 q18 -12 75 -12q260 0 283 2q98 8 157.5 59t157.5 207h52l-92 -344h-1045v41q90 8 125 27q55 29 55 106v358h-356q-53 -100 -109 -198q-80 -162 -80 -225t142 -68v-41h-410zM543 614h321v641z" />
<glyph unicode="&#xc7;" horiz-adv-x="942" d="M63 307q0 246 189.5 443.5t433.5 197.5q88 0 154 -41q76 -47 75 -131q0 -100 -104 -100q-84 0 -84 88q0 16 17.5 48t17.5 44q0 20 -28.5 33.5t-51.5 13.5q-197 0 -322 -215q-106 -182 -106 -393q0 -104 43 -166q51 -74 149 -74q145 0 306 172l36 -20q-186 -231 -393 -232 q-332 0 -332 332z" />
<glyph unicode="&#xc8;" horiz-adv-x="1290" d="M94 0v41q96 2 138 36t42 126v950q0 100 -45 129q-23 16 -135 35v39h1096l8 -291l-59 -2q-10 47 -45 135q-41 66 -236 82q-47 4 -270 4q-102 0 -103 -70v-464h357q94 0 135 55q31 41 45 143h49v-475h-49q-8 106 -51 154.5t-146 48.5h-340v-537q0 -66 197 -65q244 0 332 35 q135 51 221 239h61l-94 -348h-1108zM467 1800q0 66 72 66q45 0 196 -150q94 -100 191 -201h-86q-63 43 -306 193q-67 43 -67 92z" />
<glyph unicode="&#xc9;" horiz-adv-x="1290" d="M94 0v41q96 2 138 36t42 126v950q0 100 -45 129q-23 16 -135 35v39h1096l8 -291l-59 -2q-10 47 -45 135q-41 66 -236 82q-47 4 -270 4q-102 0 -103 -70v-464h357q94 0 135 55q31 41 45 143h49v-475h-49q-8 106 -51 154.5t-146 48.5h-340v-537q0 -66 197 -65q244 0 332 35 q135 51 221 239h61l-94 -348h-1108zM469 1520q332 350 393 350q68 0 68 -63q0 -51 -66 -94q-102 -63 -305 -193h-90z" />
<glyph unicode="&#xca;" horiz-adv-x="1290" d="M94 0v41q96 2 138 36t42 126v950q0 100 -45 129q-23 16 -135 35v39h1096l8 -291l-59 -2q-10 47 -45 135q-41 66 -236 82q-47 4 -270 4q-102 0 -103 -70v-464h357q94 0 135 55q31 41 45 143h49v-475h-49q-8 106 -51 154.5t-146 48.5h-340v-537q0 -66 197 -65q244 0 332 35 q135 51 221 239h61l-94 -348h-1108zM387 1495l254 342h132l256 -342h-80l-242 209l-246 -209h-74z" />
<glyph unicode="&#xcb;" horiz-adv-x="1290" d="M94 0v41q96 2 138 36t42 126v950q0 100 -45 129q-23 16 -135 35v39h1096l8 -291l-59 -2q-10 47 -45 135q-41 66 -236 82q-47 4 -270 4q-102 0 -103 -70v-464h357q94 0 135 55q31 41 45 143h49v-475h-49q-8 106 -51 154.5t-146 48.5h-340v-537q0 -66 197 -65q244 0 332 35 q135 51 221 239h61l-94 -348h-1108zM410 1595q0 41 28.5 72t67.5 31q45 0 75.5 -31t30.5 -74q0 -41 -30.5 -71.5t-71.5 -30.5t-70.5 31.5t-29.5 72.5zM815 1593q0 43 28.5 74t69.5 31q43 0 74 -31t31 -74t-30 -72.5t-73 -29.5t-71.5 29.5t-28.5 72.5z" />
<glyph unicode="&#xcc;" horiz-adv-x="757" d="M98 0v41q106 0 146 22q55 31 55 130v970q0 92 -57 125q-39 23 -144 29v39h613v-39q-106 -6 -144 -27q-57 -33 -57 -127v-970q0 -96 57 -127q39 -23 144 -25v-41h-613zM180 1800q0 66 72 66q45 0 196 -150q94 -100 191 -201h-86q-63 43 -306 193q-67 43 -67 92z" />
<glyph unicode="&#xcd;" horiz-adv-x="862" d="M63 -29l41 340h37q35 -135 66 -188q59 -100 160 -100q72 0 112.5 46t40.5 117q0 90 -128 260t-128 271q0 111 74 172t186 61q33 0 99.5 -19.5t99.5 -19.5q41 0 63 39h25l-35 -299h-37q0 102 -47 168q-51 78 -149 78q-121 0 -121 -123q0 -59 70 -151q63 -86 126 -170 q70 -106 70 -199q0 -129 -93 -205t-224 -76q-37 0 -111 21.5t-110 21.5q-33 0 -48 -45h-39z" />
<glyph unicode="&#xce;" horiz-adv-x="757" d="M98 0v41q106 0 146 22q55 31 55 130v970q0 92 -57 125q-39 23 -144 29v39h613v-39q-106 -6 -144 -27q-57 -33 -57 -127v-970q0 -96 57 -127q39 -23 144 -25v-41h-613zM79 1495l254 342h132l256 -342h-80l-242 209l-246 -209h-74z" />
<glyph unicode="&#xcf;" horiz-adv-x="757" d="M98 0v41q106 0 146 22q55 31 55 130v970q0 92 -57 125q-39 23 -144 29v39h613v-39q-106 -6 -144 -27q-57 -33 -57 -127v-970q0 -96 57 -127q39 -23 144 -25v-41h-613zM103 1595q0 41 28.5 72t67.5 31q45 0 75.5 -31t30.5 -74q0 -41 -30.5 -71.5t-71.5 -30.5t-70.5 31.5 t-29.5 72.5zM508 1593q0 43 28.5 74t69.5 31q43 0 74 -31t31 -74t-30 -72.5t-73 -29.5t-71.5 29.5t-28.5 72.5z" />
<glyph unicode="&#xd0;" horiz-adv-x="1499" d="M78 0v41q94 2 131 27q47 31 47 118v459h-168v92h168v443q0 84 -51 110q-20 12 -127 27v39h598q334 0 543 -164q229 -180 229 -506q0 -317 -217 -506q-207 -180 -529 -180h-624zM467 162q0 -61 45 -78q27 -12 94 -8l82 4q256 12 397 172q137 154 138 414q0 303 -170 458.5 t-475 155.5q-109 0 -109 -68l-2 -475h301v-92h-301v-483z" />
<glyph unicode="&#xd1;" horiz-adv-x="1056" d="M74 0l174 635q33 125 33 156q0 55 -138 55v37l361 63l-139 -450q102 137 204 276q147 176 283 176q141 0 141 -139q0 -94 -86 -352t-86 -338q0 -37 33 -37q45 0 176 172l33 -31q-80 -113 -127 -157q-86 -84 -174 -84q-106 0 -107 100q0 29 39 176q35 125 72 250 q51 193 51 270q0 61 -49 62q-100 0 -254 -211q-135 -182 -174 -305q-33 -109 -104 -324h-162z" />
<glyph unicode="&#xd2;" horiz-adv-x="1470" d="M70 674q0 301 178 502q186 209 483 208q307 0 496 -200q182 -197 182 -506q0 -307 -180 -504q-188 -203 -492 -203q-299 0 -485 203q-182 197 -182 500zM305 686q0 -256 90 -424q113 -217 344 -217q229 0 344 211q90 170 91 420q0 254 -91 422q-115 211 -346 211 q-225 0 -340 -209q-92 -168 -92 -414zM529 1800q0 66 72 66q45 0 196 -150q94 -100 191 -201h-86q-63 43 -306 193q-67 43 -67 92z" />
<glyph unicode="&#xd3;" horiz-adv-x="1470" d="M70 674q0 301 178 502q186 209 483 208q307 0 496 -200q182 -197 182 -506q0 -307 -180 -504q-188 -203 -492 -203q-299 0 -485 203q-182 197 -182 500zM305 686q0 -256 90 -424q113 -217 344 -217q229 0 344 211q90 170 91 420q0 254 -91 422q-115 211 -346 211 q-225 0 -340 -209q-92 -168 -92 -414zM490 1520q332 350 393 350q68 0 68 -63q0 -51 -66 -94q-102 -63 -305 -193h-90z" />
<glyph unicode="&#xd4;" horiz-adv-x="1470" d="M70 674q0 301 178 502q186 209 483 208q307 0 496 -200q182 -197 182 -506q0 -307 -180 -504q-188 -203 -492 -203q-299 0 -485 203q-182 197 -182 500zM305 686q0 -256 90 -424q113 -217 344 -217q229 0 344 211q90 170 91 420q0 254 -91 422q-115 211 -346 211 q-225 0 -340 -209q-92 -168 -92 -414zM407 1495l254 342h132l256 -342h-80l-242 209l-246 -209h-74z" />
<glyph unicode="&#xd5;" horiz-adv-x="1470" d="M70 674q0 301 178 502q186 209 483 208q307 0 496 -200q182 -197 182 -506q0 -307 -180 -504q-188 -203 -492 -203q-299 0 -485 203q-182 197 -182 500zM305 686q0 -256 90 -424q113 -217 344 -217q229 0 344 211q90 170 91 420q0 254 -91 422q-115 211 -346 211 q-225 0 -340 -209q-92 -168 -92 -414zM412 1509q45 209 213 209q61 0 154.5 -46t130.5 -46q78 0 116 94q0 2 2 9h62q-57 -217 -217 -217q-68 0 -162 47t-125 47q-80 0 -111 -97h-63z" />
<glyph unicode="&#xd6;" horiz-adv-x="1470" d="M70 674q0 301 178 502q186 209 483 208q307 0 496 -200q182 -197 182 -506q0 -307 -180 -504q-188 -203 -492 -203q-299 0 -485 203q-182 197 -182 500zM305 686q0 -256 90 -424q113 -217 344 -217q229 0 344 211q90 170 91 420q0 254 -91 422q-115 211 -346 211 q-225 0 -340 -209q-92 -168 -92 -414zM431 1595q0 41 28.5 72t67.5 31q45 0 75.5 -31t30.5 -74q0 -41 -30.5 -71.5t-71.5 -30.5t-70.5 31.5t-29.5 72.5zM836 1593q0 43 28.5 74t69.5 31q43 0 74 -31t31 -74t-30 -72.5t-73 -29.5t-71.5 29.5t-28.5 72.5z" />
<glyph unicode="&#xd8;" horiz-adv-x="1460" d="M57 676q0 305 183.5 506.5t486.5 201.5q115 0 186.5 -20.5t176.5 -79.5l145 219h102l-180 -266q244 -217 244 -561q0 -305 -182 -502q-188 -205 -490 -205q-190 0 -362 103l-160 -236h-105l197 285q-242 205 -242 555zM295 680q0 -256 92 -424l629 922q-127 133 -287 133 q-227 0 -342 -213q-92 -170 -92 -418zM440 180q117 -135 289 -135q231 0 344 213q90 168 90 420q0 268 -94 424z" />
<glyph unicode="&#xd9;" horiz-adv-x="1386" d="M57 1317v39h582v-39q-115 -12 -145 -39q-41 -35 -41 -143v-682q0 -389 350 -390q385 0 385 379v648q0 119 -39 168t-154 59v39h480v-39q-66 -10 -89 -17q-49 -14 -73 -45q-37 -49 -37 -409q0 -102 3 -244.5t3 -148.5q0 -233 -140.5 -357.5t-375.5 -124.5q-236 0 -375 117 q-152 125 -151 354v738q0 82 -56 110q-31 19 -127 27zM569 1800q0 66 72 66q45 0 196 -150q94 -100 191 -201h-86q-63 43 -306 193q-67 43 -67 92z" />
<glyph unicode="&#xda;" horiz-adv-x="1386" d="M57 1317v39h582v-39q-115 -12 -145 -39q-41 -35 -41 -143v-682q0 -389 350 -390q385 0 385 379v648q0 119 -39 168t-154 59v39h480v-39q-66 -10 -89 -17q-49 -14 -73 -45q-37 -49 -37 -409q0 -102 3 -244.5t3 -148.5q0 -233 -140.5 -357.5t-375.5 -124.5q-236 0 -375 117 q-152 125 -151 354v738q0 82 -56 110q-31 19 -127 27zM551 1520q332 350 393 350q68 0 68 -63q0 -51 -66 -94q-102 -63 -305 -193h-90z" />
<glyph unicode="&#xdb;" horiz-adv-x="1386" d="M57 1317v39h582v-39q-115 -12 -145 -39q-41 -35 -41 -143v-682q0 -389 350 -390q385 0 385 379v648q0 119 -39 168t-154 59v39h480v-39q-66 -10 -89 -17q-49 -14 -73 -45q-37 -49 -37 -409q0 -102 3 -244.5t3 -148.5q0 -233 -140.5 -357.5t-375.5 -124.5q-236 0 -375 117 q-152 125 -151 354v738q0 82 -56 110q-31 19 -127 27zM469 1495l254 342h132l256 -342h-80l-242 209l-246 -209h-74z" />
<glyph unicode="&#xdc;" horiz-adv-x="1386" d="M57 1317v39h582v-39q-115 -12 -145 -39q-41 -35 -41 -143v-682q0 -389 350 -390q385 0 385 379v648q0 119 -39 168t-154 59v39h480v-39q-66 -10 -89 -17q-49 -14 -73 -45q-37 -49 -37 -409q0 -102 3 -244.5t3 -148.5q0 -233 -140.5 -357.5t-375.5 -124.5q-236 0 -375 117 q-152 125 -151 354v738q0 82 -56 110q-31 19 -127 27zM492 1595q0 41 28.5 72t67.5 31q45 0 75.5 -31t30.5 -74q0 -41 -30.5 -71.5t-71.5 -30.5t-70.5 31.5t-29.5 72.5zM897 1593q0 43 28.5 74t69.5 31q43 0 74 -31t31 -74t-30 -72.5t-73 -29.5t-71.5 29.5t-28.5 72.5z" />
<glyph unicode="&#xdd;" horiz-adv-x="1327" d="M25 1315v41h575v-39q-72 -4 -88 -8q-57 -12 -57 -52q0 -53 145 -270q96 -137 191 -274q55 82 108 164q92 137 143 221q70 119 70 153q0 61 -141 66v39h450v-39q-96 -14 -168 -84q-45 -43 -116 -154l-301 -458l2 -439q0 -94 61 -123q39 -16 145 -18v-41h-628v41 q113 0 149 22q57 31 58 134l2 403l-346 508q-63 94 -105 133q-69 68 -149 74zM469 1520q332 350 393 350q68 0 68 -63q0 -51 -66 -94q-102 -63 -305 -193h-90z" />
<glyph unicode="&#xde;" horiz-adv-x="1165" d="M63 0v41q90 4 125 27q47 31 48 114v996q0 82 -50 108q-23 14 -123 31v39h572v-39q-133 -16 -162 -55q-25 -31 -24 -172q303 0 448 -50q248 -84 248 -323q0 -209 -182 -314q-143 -82 -369 -81q-59 0 -148 8q2 -188 15 -217q31 -72 180 -72v-41h-578zM446 412q86 -6 123 -6 q350 0 351 299q0 305 -373 305q-59 0 -74 -6q-27 -10 -27 -60v-532z" />
<glyph unicode="&#xdf;" horiz-adv-x="1589" d="M92 293h53q96 -244 267 -244q66 0 108.5 40t42.5 106q0 96 -133 180q-180 113 -194 123q-100 86 -101 202q0 109 72 175.5t178 66.5q35 0 98.5 -23.5t96.5 -23.5q29 0 34 47h48l32 -311h-57q-16 96 -78 162q-68 74 -158 73q-55 0 -92 -31.5t-37 -84.5q0 -88 140 -175 q180 -109 204 -129q106 -90 107 -210q0 -121 -94 -193q-86 -63 -209 -63q-37 0 -101.5 23.5t-99.5 23.5q-33 0 -33 -45h-51zM897 293h53q96 -244 267 -244q66 0 108.5 40t42.5 106q0 96 -133 180q-180 113 -194 123q-100 86 -101 202q0 109 72 175.5t178 66.5 q35 0 98.5 -23.5t96.5 -23.5q29 0 34 47h48l32 -311h-57q-16 96 -78 162q-68 74 -158 73q-55 0 -92 -31.5t-37 -84.5q0 -88 140 -175q180 -109 204 -129q106 -90 107 -210q0 -121 -94 -193q-86 -63 -209 -63q-37 0 -101.5 23.5t-99.5 23.5q-33 0 -33 -45h-51z" />
<glyph unicode="&#xe0;" horiz-adv-x="903" d="M74 201q0 145 190 258q94 57 320 139l2 123q4 172 -156 172q-47 0 -92 -25q-53 -27 -53 -69q0 -14 5 -43t5 -43q0 -35 -27.5 -61.5t-64.5 -26.5q-35 0 -61.5 26.5t-26.5 61.5q0 111 116 176q98 53 218 53q303 0 303 -289v-460q0 -96 61 -97q45 0 90 41v-55 q-92 -102 -178 -102q-131 0 -137 149q-168 -150 -297 -149q-96 0 -156.5 62.5t-60.5 158.5zM256 262q0 -72 46 -122t118 -50q76 0 125 68q41 61 41 141v59l-2 189q-328 -115 -328 -285zM242 1323q0 66 72 66q45 0 196 -150q94 -100 191 -201h-86q-63 43 -306 193 q-67 43 -67 92z" />
<glyph unicode="&#xe1;" horiz-adv-x="903" d="M74 201q0 145 190 258q94 57 320 139l2 123q4 172 -156 172q-47 0 -92 -25q-53 -27 -53 -69q0 -14 5 -43t5 -43q0 -35 -27.5 -61.5t-64.5 -26.5q-35 0 -61.5 26.5t-26.5 61.5q0 111 116 176q98 53 218 53q303 0 303 -289v-460q0 -96 61 -97q45 0 90 41v-55 q-92 -102 -178 -102q-131 0 -137 149q-168 -150 -297 -149q-96 0 -156.5 62.5t-60.5 158.5zM256 262q0 -72 46 -122t118 -50q76 0 125 68q41 61 41 141v59l-2 189q-328 -115 -328 -285z" />
<glyph unicode="&#xe2;" horiz-adv-x="1046" d="M45 0v47q78 0 133 127l324 764h41l348 -795q23 -51 41 -69q25 -25 76 -27v-47h-369v47h25q70 0 69 39q0 31 -78 209h-340l-45 -119q-4 -16 -20 -35q-6 -43 -6 -49q0 -45 94 -45v-47h-293zM346 373h283l-142 334z" />
<glyph unicode="&#xe3;" horiz-adv-x="903" d="M74 201q0 145 190 258q94 57 320 139l2 123q4 172 -156 172q-47 0 -92 -25q-53 -27 -53 -69q0 -14 5 -43t5 -43q0 -35 -27.5 -61.5t-64.5 -26.5q-35 0 -61.5 26.5t-26.5 61.5q0 111 116 176q98 53 218 53q303 0 303 -289v-460q0 -96 61 -97q45 0 90 41v-55 q-92 -102 -178 -102q-131 0 -137 149q-168 -150 -297 -149q-96 0 -156.5 62.5t-60.5 158.5zM256 262q0 -72 46 -122t118 -50q76 0 125 68q41 61 41 141v59l-2 189q-328 -115 -328 -285zM82 1087q45 209 213 209q61 0 154.5 -46t130.5 -46q78 0 116 94q0 2 2 9h62 q-57 -217 -217 -217q-68 0 -162 47t-125 47q-80 0 -111 -97h-63z" />
<glyph unicode="&#xe4;" horiz-adv-x="903" d="M74 201q0 145 190 258q94 57 320 139l2 123q4 172 -156 172q-47 0 -92 -25q-53 -27 -53 -69q0 -14 5 -43t5 -43q0 -35 -27.5 -61.5t-64.5 -26.5q-35 0 -61.5 26.5t-26.5 61.5q0 111 116 176q98 53 218 53q303 0 303 -289v-460q0 -96 61 -97q45 0 90 41v-55 q-92 -102 -178 -102q-131 0 -137 149q-168 -150 -297 -149q-96 0 -156.5 62.5t-60.5 158.5zM256 262q0 -72 46 -122t118 -50q76 0 125 68q41 61 41 141v59l-2 189q-328 -115 -328 -285zM134 1163q0 41 28.5 72t67.5 31q45 0 75.5 -31t30.5 -74q0 -41 -30.5 -71.5 t-71.5 -30.5t-70.5 31.5t-29.5 72.5zM539 1161q0 43 28.5 74t69.5 31q43 0 74 -31t31 -74t-30 -72.5t-73 -29.5t-71.5 29.5t-28.5 72.5z" />
<glyph unicode="&#xe5;" horiz-adv-x="903" d="M74 201q0 145 190 258q94 57 320 139l2 123q4 172 -156 172q-47 0 -92 -25q-53 -27 -53 -69q0 -14 5 -43t5 -43q0 -35 -27.5 -61.5t-64.5 -26.5q-35 0 -61.5 26.5t-26.5 61.5q0 111 116 176q98 53 218 53q303 0 303 -289v-460q0 -96 61 -97q45 0 90 41v-55 q-92 -102 -178 -102q-131 0 -137 149q-168 -150 -297 -149q-96 0 -156.5 62.5t-60.5 158.5zM256 262q0 -72 46 -122t118 -50q76 0 125 68q41 61 41 141v59l-2 189q-328 -115 -328 -285zM225 1249q0 86 58.5 146.5t144.5 60.5q88 0 148.5 -59.5t60.5 -147.5q0 -86 -60.5 -144 t-146.5 -58q-84 0 -144.5 59t-60.5 143zM299 1249q0 -55 38 -93t93 -38t94 39t39 94q0 57 -39 95t-96 38q-55 0 -92 -40t-37 -95z" />
<glyph unicode="&#xe6;" horiz-adv-x="1406" d="M47 205q0 156 113 350q102 176 237 289q127 104 256 104q96 0 140 -98l38 90l158 4l-45 -121l4 -4q123 129 254 129q74 0 125 -37t51 -108q0 -150 -178 -244q-158 -84 -373 -133q-18 -90 -18 -141q0 -207 149 -207q131 0 304 168l24 -29q-199 -242 -422 -242 q-102 0 -168 82q-61 76 -61 183l6 61l-10 -4l-13 -14q-217 -307 -378 -308q-193 1 -193 230zM238 182q0 -96 73 -96q143 0 291 254t148 448q0 115 -99 115q-141 0 -280 -256q-133 -244 -133 -465zM840 479q125 29 207 76q186 104 186 262q0 76 -74 76q-190 0 -319 -414z" />
<glyph unicode="&#xe7;" horiz-adv-x="942" d="M63 307q0 246 189.5 443.5t433.5 197.5q88 0 154 -41q76 -47 75 -131q0 -100 -104 -100q-84 0 -84 88q0 16 17.5 48t17.5 44q0 20 -28.5 33.5t-51.5 13.5q-197 0 -322 -215q-106 -182 -106 -393q0 -104 43 -166q51 -74 149 -74q145 0 306 172l36 -20q-186 -231 -393 -232 q-332 0 -332 332z" />
<glyph unicode="&#xe8;" horiz-adv-x="862" d="M82 438q0 211 106 350q119 154 324 154q162 0 254 -108q84 -98 96 -267h-635q31 -446 324 -446q184 0 315 217l35 -16q-55 -152 -164 -244q-119 -100 -272 -101q-186 0 -291 142q-92 124 -92 319zM233 635h420q-20 115 -49 162q-47 72 -145 71q-191 0 -226 -233z M262 1323q0 66 72 66q45 0 196 -150q94 -100 191 -201h-86q-63 43 -306 193q-67 43 -67 92z" />
<glyph unicode="&#xe9;" horiz-adv-x="862" d="M82 438q0 211 106 350q119 154 324 154q162 0 254 -108q84 -98 96 -267h-635q31 -446 324 -446q184 0 315 217l35 -16q-55 -152 -164 -244q-119 -100 -272 -101q-186 0 -291 142q-92 124 -92 319zM233 635h420q-20 115 -49 162q-47 72 -145 71q-191 0 -226 -233z" />
<glyph unicode="&#xea;" horiz-adv-x="960" d="M96 0v47q66 2 92.5 20.5t26.5 77.5v631q0 80 -63 92q-16 2 -56 9v45h748l6 -213l-57 -2q-35 104 -69 124.5t-163 20.5q-133 0 -176 -6q-8 -10 -8 -29v-299h225q59 0 84 37q16 25 27 96h51v-336h-51q-4 133 -121 134h-215v-347q0 -33 123 -32q160 0 215 22q84 35 141 160 h62l-68 -252h-754z" />
<glyph unicode="&#xeb;" horiz-adv-x="862" d="M82 438q0 211 106 350q119 154 324 154q162 0 254 -108q84 -98 96 -267h-635q31 -446 324 -446q184 0 315 217l35 -16q-55 -152 -164 -244q-119 -100 -272 -101q-186 0 -291 142q-92 124 -92 319zM233 635h420q-20 115 -49 162q-47 72 -145 71q-191 0 -226 -233z M195 1163q0 41 28.5 72t67.5 31q45 0 75.5 -31t30.5 -74q0 -41 -30.5 -71.5t-71.5 -30.5t-70.5 31.5t-29.5 72.5zM600 1161q0 43 28.5 74t69.5 31q43 0 74 -31t31 -74t-30 -72.5t-73 -29.5t-71.5 29.5t-28.5 72.5z" />
<glyph unicode="&#xec;" horiz-adv-x="577" d="M78 1323q0 66 72 66q45 0 196 -150q94 -100 191 -201h-86q-63 43 -306 193q-67 43 -67 92zM98 0v47q74 0 97 12q35 18 34 78v647q0 78 -75 88q-10 0 -56 5v45h418v-45q-35 -2 -94 -17q-37 -18 -37 -76v-647q0 -59 37 -78q23 -10 94 -12v-47h-418z" />
<glyph unicode="&#xed;" horiz-adv-x="626" d="M84 0v33q90 2 123 26q41 31 41 117v522q0 106 -76 107q-25 0 -80 -8v32q14 4 320 113l10 -6v-774q0 -76 39 -105q31 -23 112 -24v-33h-489zM213 1292q0 45 28.5 76t73.5 31q43 0 76 -31t33 -74q0 -45 -31 -75.5t-76 -30.5q-43 0 -73.5 30.5t-30.5 73.5z" />
<glyph unicode="&#xee;" horiz-adv-x="577" d="M98 0v47q74 0 97 12q35 18 34 78v647q0 78 -75 88q-10 0 -56 5v45h418v-45q-35 -2 -94 -17q-37 -18 -37 -76v-647q0 -59 37 -78q23 -10 94 -12v-47h-418z" />
<glyph unicode="&#xef;" horiz-adv-x="577" d="M11 1163q0 41 28.5 72t67.5 31q45 0 75.5 -31t30.5 -74q0 -41 -30.5 -71.5t-71.5 -30.5t-70.5 31.5t-29.5 72.5zM416 1161q0 43 28.5 74t69.5 31q43 0 74 -31t31 -74t-30 -72.5t-73 -29.5t-71.5 29.5t-28.5 72.5zM98 0v47q74 0 97 12q35 18 34 78v647q0 78 -75 88 q-10 0 -56 5v45h418v-45q-35 -2 -94 -17q-37 -18 -37 -76v-647q0 -59 37 -78q23 -10 94 -12v-47h-418z" />
<glyph unicode="&#xf0;" horiz-adv-x="983" d="M86 0v47q63 2 86 14q31 18 31 72v297h-111v80h111v285q0 68 -68 75l-49 7v45h408q225 0 366 -111q156 -123 156 -344q0 -215 -148 -344q-139 -123 -358 -123h-424zM365 117q0 -51 81 -47q399 20 400 383q0 199 -109.5 299t-308.5 100q-61 0 -63 -35v-307h200v-80h-200 v-313z" />
<glyph unicode="&#xf1;" horiz-adv-x="1103" d="M86 813v37q27 6 285 92l16 -4v-160q86 82 133 113q80 51 164 51q104 0 172 -79t68 -187v-508q0 -76 25.5 -102.5t101.5 -32.5v-33h-430v33q129 4 129 135v502q0 72 -40 115.5t-110 43.5q-94 0 -207 -118v-578q0 -94 135 -100v-33h-438v33q127 2 127 117v581q0 92 -70 92 q-24 0 -61 -10z" />
<glyph unicode="&#xf2;" horiz-adv-x="964" d="M80 459q0 203 124 343t326 140q209 0 335 -135t126 -346q0 -207 -125 -344t-331 -137q-203 0 -329 137t-126 342zM258 467q0 -168 55 -277q74 -141 224 -141q147 0 219 137q59 111 59 273q0 166 -59 274q-72 137 -221 137q-145 0 -220 -135q-57 -108 -57 -268zM303 1323 q0 66 72 66q45 0 196 -150q94 -100 191 -201h-86q-63 43 -306 193q-67 43 -67 92z" />
<glyph unicode="&#xf3;" horiz-adv-x="964" d="M80 459q0 203 124 343t326 140q209 0 335 -135t126 -346q0 -207 -125 -344t-331 -137q-203 0 -329 137t-126 342zM258 467q0 -168 55 -277q74 -141 224 -141q147 0 219 137q59 111 59 273q0 166 -59 274q-72 137 -221 137q-145 0 -220 -135q-57 -108 -57 -268z" />
<glyph unicode="&#xf4;" horiz-adv-x="964" d="M80 459q0 203 124 343t326 140q209 0 335 -135t126 -346q0 -207 -125 -344t-331 -137q-203 0 -329 137t-126 342zM258 467q0 -168 55 -277q74 -141 224 -141q147 0 219 137q59 111 59 273q0 166 -59 274q-72 137 -221 137q-145 0 -220 -135q-57 -108 -57 -268z" />
<glyph unicode="&#xf5;" horiz-adv-x="964" d="M74 274q0 244 196.5 459t438.5 215q145 0 229 -82t84 -227q0 -238 -197.5 -451t-433.5 -213q-139 0 -228 81t-89 218zM262 242q0 -84 52.5 -154t131.5 -70q59 0 140 70q113 96 186 285q70 176 70 334q0 76 -35 131q-39 63 -111 63q-176 0 -313 -250q-121 -216 -121 -409z M389 1087q45 209 213 209q61 0 154.5 -46t130.5 -46q78 0 116 94q0 2 2 9h62q-57 -217 -217 -217q-68 0 -162 47t-125 47q-80 0 -111 -97h-63z" />
<glyph unicode="&#xf6;" horiz-adv-x="964" d="M74 274q0 244 196.5 459t438.5 215q145 0 229 -82t84 -227q0 -238 -197.5 -451t-433.5 -213q-139 0 -228 81t-89 218zM262 242q0 -84 52.5 -154t131.5 -70q59 0 140 70q113 96 186 285q70 176 70 334q0 76 -35 131q-39 63 -111 63q-176 0 -313 -250q-121 -216 -121 -409z M420 1163q0 41 28.5 72t67.5 31q45 0 75.5 -31t30.5 -74q0 -41 -30.5 -71.5t-71.5 -30.5t-70.5 31.5t-29.5 72.5zM825 1161q0 43 28.5 74t69.5 31q43 0 74 -31t31 -74t-30 -72.5t-73 -29.5t-71.5 29.5t-28.5 72.5z" />
<glyph unicode="&#xf8;" horiz-adv-x="1040" d="M59 291q0 168 111 334q102 156 256 243q143 84 254 80l49 -2l117 246h76l-121 -254q207 -82 207 -289q0 -174 -115 -350q-94 -147 -248 -244q-129 -82 -250 -78l-57 5l-131 -271h-80l139 281q-207 66 -207 299zM244 217q0 -92 57 -151l404 833l-19 4q-184 0 -324 -258 q-118 -225 -118 -428zM360 31q27 -6 56 -6q158 0 280 219q129 229 129 452q0 113 -57 174z" />
<glyph unicode="&#xf9;" horiz-adv-x="1042" d="M80 891v31h301v-672q0 -61 43 -106.5t102 -45.5q82 0 146 41q72 45 71 123v522q0 61 -49 84q-31 14 -104 19v35h328v-725q0 -106 124 -93v-30q-96 -25 -286 -92l-4 6v166q-76 -86 -129 -121q-78 -53 -168 -53q-104 0 -176 70.5t-72 174.5v551q0 113 -127 115zM283 1323 q0 66 72 66q45 0 196 -150q94 -100 191 -201h-86q-63 43 -306 193q-67 43 -67 92z" />
<glyph unicode="&#xfa;" horiz-adv-x="1042" d="M80 891v31h301v-672q0 -61 43 -106.5t102 -45.5q82 0 146 41q72 45 71 123v522q0 61 -49 84q-31 14 -104 19v35h328v-725q0 -106 124 -93v-30q-96 -25 -286 -92l-4 6v166q-76 -86 -129 -121q-78 -53 -168 -53q-104 0 -176 70.5t-72 174.5v551q0 113 -127 115z" />
<glyph unicode="&#xfb;" horiz-adv-x="1079" d="M72 877v45h407v-45q-78 -8 -96 -23q-29 -20 -29 -90v-453q0 -250 224 -250q246 0 245 242v432q0 78 -25.5 106.5t-101.5 35.5v45h338v-45q-47 -6 -63 -11q-37 -12 -49 -35q-27 -47 -21 -186q14 -252 12 -289q-14 -377 -360 -376q-160 0 -256 79q-104 86 -104 244v492 q0 66 -72 77q-8 1 -49 5z" />
<glyph unicode="&#xfc;" horiz-adv-x="1042" d="M80 891v31h301v-672q0 -61 43 -106.5t102 -45.5q82 0 146 41q72 45 71 123v522q0 61 -49 84q-31 14 -104 19v35h328v-725q0 -106 124 -93v-30q-96 -25 -286 -92l-4 6v166q-76 -86 -129 -121q-78 -53 -168 -53q-104 0 -176 70.5t-72 174.5v551q0 113 -127 115zM215 1163 q0 41 28.5 72t67.5 31q45 0 75.5 -31t30.5 -74q0 -41 -30.5 -71.5t-71.5 -30.5t-70.5 31.5t-29.5 72.5zM620 1161q0 43 28.5 74t69.5 31q43 0 74 -31t31 -74t-30 -72.5t-73 -29.5t-71.5 29.5t-28.5 72.5z" />
<glyph unicode="&#xfd;" horiz-adv-x="1032" d="M487 1071q332 350 393 350q68 0 68 -63q0 -51 -66 -94q-102 -63 -305 -193h-90zM59 874v48h402v-45q-96 0 -96 -31q0 -37 92 -170q59 -86 121 -174q205 313 204 340q0 31 -94 35v45h320v-45q-66 -8 -113 -54q-31 -29 -78 -100l-199 -303l3 -289q0 -76 81 -82q12 -2 56 -2 v-47h-439v47q78 0 101 12q37 16 37 82l2 265l-230 335q-86 127 -170 133z" />
<glyph unicode="&#xfe;" horiz-adv-x="757" d="M76 0v47q63 2 84 14q31 16 30 70v662q0 66 -65 77l-49 7v45h397v-45q-86 -10 -104.5 -29t-18.5 -103q199 0 297 -36q164 -57 164 -222q0 -272 -383 -272q-39 0 -78 4q-2 -51 10 -133q18 -39 117 -39v-47h-401zM350 293q47 -2 70 -2q223 0 223 188q0 193 -237 193 q-29 0 -50 -6q-6 -10 -6 -27v-346z" />
<glyph unicode="&#xff;" horiz-adv-x="1032" d="M59 874v48h402v-45q-96 0 -96 -31q0 -37 92 -170q59 -86 121 -174q205 313 204 340q0 31 -94 35v45h320v-45q-66 -8 -113 -54q-31 -29 -78 -100l-199 -303l3 -289q0 -76 81 -82q12 -2 56 -2v-47h-439v47q78 0 101 12q37 16 37 82l2 265l-230 335q-86 127 -170 133z M256 1163q0 41 28.5 72t67.5 31q45 0 75.5 -31t30.5 -74q0 -41 -30.5 -71.5t-71.5 -30.5t-70.5 31.5t-29.5 72.5zM661 1161q0 43 28.5 74t69.5 31q43 0 74 -31t31 -74t-30 -72.5t-73 -29.5t-71.5 29.5t-28.5 72.5z" />
<glyph unicode="&#x131;" horiz-adv-x="577" d="M98 0v47q74 0 97 12q35 18 34 78v647q0 78 -75 88q-10 0 -56 5v45h418v-45q-35 -2 -94 -17q-37 -18 -37 -76v-647q0 -59 37 -78q23 -10 94 -12v-47h-418z" />
<glyph unicode="&#x152;" horiz-adv-x="1832" d="M80 651q0 332 164 518q172 201 495 201q45 0 136.5 -7t134.5 -7h725v-289h-49q-18 131 -99 180q-61 39 -186 39q-31 0 -101.5 -3t-109.5 -3q-51 0 -80 -23l-4 -507h199q154 0 196 24q63 37 74 174h49v-479h-49q-12 154 -109 188q-43 16 -237 17h-123v-516q0 -51 35 -70 q23 -10 82 -10q213 0 245 4q104 10 168 61q72 57 142 201h53l-90 -344h-772q-49 0 -150.5 -6t-152.5 -6q-283 0 -441 194q-145 178 -145 469zM311 674q0 -608 379 -608q209 0 209 165v873q0 188 -201 188q-217 0 -315 -215q-72 -157 -72 -403z" />
<glyph unicode="&#x153;" horiz-adv-x="1419" d="M43 289q0 174 111 344q106 160 264 254q104 61 217 61q182 0 237 -170q188 172 330 172q186 0 187 -145q0 -104 -97 -195q-80 -76 -192 -118q-129 -49 -271 -74q-25 -90 -24 -172q0 -178 153 -178q133 0 314 157l24 -24q-23 -33 -79 -76q-197 -152 -334 -152 q-156 0 -232 148q-145 -147 -297 -148q-135 0 -223 90.5t-88 225.5zM223 219q0 -78 31 -133q39 -70 108 -70q61 0 127 56q55 47 86 108q63 121 111 289q49 180 49 303q0 55 -33.5 90t-89.5 35h-10q-156 0 -287 -291q-92 -205 -92 -387zM844 465q252 66 346 197q55 76 55 149 q0 84 -71 84q-86 0 -179 -115q-72 -90 -141 -284z" />
<glyph unicode="&#x178;" horiz-adv-x="1327" d="M25 1315v41h575v-39q-72 -4 -88 -8q-57 -12 -57 -52q0 -53 145 -270q96 -137 191 -274q55 82 108 164q92 137 143 221q70 119 70 153q0 61 -141 66v39h450v-39q-96 -14 -168 -84q-45 -43 -116 -154l-301 -458l2 -439q0 -94 61 -123q39 -16 145 -18v-41h-628v41 q113 0 149 22q57 31 58 134l2 403l-346 508q-63 94 -105 133q-69 68 -149 74zM431 1595q0 41 28.5 72t67.5 31q45 0 75.5 -31t30.5 -74q0 -41 -30.5 -71.5t-71.5 -30.5t-70.5 31.5t-29.5 72.5zM836 1593q0 43 28.5 74t69.5 31q43 0 74 -31t31 -74t-30 -72.5t-73 -29.5 t-71.5 29.5t-28.5 72.5z" />
<glyph unicode="&#x2c6;" horiz-adv-x="681" d="M20 1079l254 342h132l256 -342h-80l-242 209l-246 -209h-74z" />
<glyph unicode="&#x2da;" horiz-adv-x="681" d="M135 1249q0 86 58.5 146.5t144.5 60.5q88 0 148.5 -59.5t60.5 -147.5q0 -86 -60.5 -144t-146.5 -58q-84 0 -144.5 59t-60.5 143zM209 1249q0 -55 38 -93t93 -38t94 39t39 94q0 57 -39 95t-96 38q-55 0 -92 -40t-37 -95z" />
<glyph unicode="&#x2dc;" horiz-adv-x="681" d="M0 1087q45 209 213 209q61 0 154.5 -46t130.5 -46q78 0 116 94q0 2 2 9h62q-57 -217 -217 -217q-68 0 -162 47t-125 47q-80 0 -111 -97h-63z" />
<glyph unicode="&#x2013;" horiz-adv-x="1085" d="M102 412v100h1026v-100h-1026z" />
<glyph unicode="&#x2014;" horiz-adv-x="2107" d="M102 412v100h2048v-100h-2048z" />
<glyph unicode="&#x2018;" horiz-adv-x="442" d="M88 1069q0 197 234 313l16 -39q-168 -115 -168 -219q0 -27 25 -26q6 0 22 4t25 4q133 0 133 -107q0 -51 -35 -82.5t-86 -31.5q-78 0 -122 53t-44 131z" />
<glyph unicode="&#x2019;" horiz-adv-x="434" d="M86 1270q0 51 36 82.5t87 31.5q76 0 121 -55t45 -133q0 -94 -69.5 -183t-162.5 -128l-18 41q166 109 166 213q0 31 -21 30q-8 0 -28.5 -4t-32.5 -4q-123 0 -123 109z" />
<glyph unicode="&#x201a;" horiz-adv-x="483" d="M86 94q0 51 36 84t87 33q78 0 122 -55.5t44 -132.5q0 -94 -69.5 -183.5t-162.5 -128.5l-18 39q166 113 166 215q0 31 -21 31q-8 0 -28.5 -4t-32.5 -4q-51 0 -84 26q-39 31 -39 80z" />
<glyph unicode="&#x201c;" horiz-adv-x="915" d="M88 1071q0 199 231 313l17 -38q-168 -115 -168 -220q0 -27 25 -26q6 0 22 4t27 4q133 0 133 -107q0 -51 -36 -82.5t-87 -31.5q-78 0 -121 53t-43 131zM561 1071q0 96 70 189q68 84 162 124l18 -38q-168 -111 -168 -220q0 -27 25 -26q6 0 22.5 4t24.5 4q133 0 133 -107 q0 -51 -35 -82.5t-86 -31.5q-78 0 -122 53t-44 131z" />
<glyph unicode="&#x201d;" horiz-adv-x="948" d="M86 1268q0 51 36 83.5t87 32.5q76 0 121 -55t45 -131q0 -94 -69.5 -183t-162.5 -128l-20 39q168 111 168 217q0 27 -23 26q-8 0 -28.5 -4t-32.5 -4q-49 0 -85 29t-36 78zM561 1268q0 117 123 116q76 0 121 -55t45 -133q0 -94 -69.5 -182t-162.5 -127l-20 39 q168 111 168 217q0 27 -23 26q-8 0 -28.5 -4t-32.5 -4q-49 0 -85 29t-36 78z" />
<glyph unicode="&#x201e;" horiz-adv-x="1468" d="M61 897q35 4 142 29q94 23 133 22q14 0 26 -35q25 -84 54 -315q25 -217 24 -322l404 639l53 25l68 -776q350 393 350 551q0 37 -46 83t-46 76q0 74 88 74q111 0 110 -112q0 -143 -194 -422q-51 -74 -285 -367q-70 -86 -90 -86q-23 0 -31 74q-2 49 -4 96l-55 576 q-412 -745 -443 -746q-25 0 -32 98l-4 127q-10 162 -23 326q-20 223 -49 301q-18 45 -59 51h-86z" />
<glyph unicode="&#x2022;" horiz-adv-x="702" d="M88 680q0 115 82 194.5t197 79.5t196.5 -79.5t81.5 -194.5q0 -117 -81 -198t-197 -81q-115 0 -197 82t-82 197z" />
<glyph unicode="&#x2026;" horiz-adv-x="1314" d="M975 90q0 47 32 81t79 34t83 -34t36 -81t-34 -80t-81 -33q-49 0 -82 33t-33 80zM536 90q0 47 32 81t79 34t83 -34t36 -81t-34 -80t-81 -33q-49 0 -82 33t-33 80zM98 90q0 47 32 81t79 34t83 -34t36 -81t-34 -80t-81 -33q-49 0 -82 33t-33 80z" />
<glyph unicode="&#x2030;" horiz-adv-x="845" d="M55 0l172 625q35 129 35 178q0 59 -67 59q-29 0 -80 -10v39l331 57l11 -2l-6 -31l-99 -397l84 156q66 123 182 221q61 51 123 51q102 0 103 -106q0 -111 -101 -111q-55 0 -77 47l-11 25q-6 6 -24 6q-35 0 -105.5 -97.5t-134.5 -226.5q-39 -76 -69 -161q-27 -74 -93 -289 l-8 -33h-166z" />
<glyph unicode="&#x2039;" horiz-adv-x="563" d="M63 465q4 4 218.5 196.5t216.5 192.5q12 -4 20 -14q-4 -41 -121 -197q-70 -90 -141 -182q2 -4 143 -182q121 -152 121 -185q0 -27 -20 -26q-4 0 -194 172t-243 225z" />
<glyph unicode="&#x203a;" horiz-adv-x="485" d="M63 829q0 23 21 23q6 0 203 -182q213 -197 233 -215q-141 -133 -436 -387q-10 2 -18 10v10q0 23 129 197q119 160 133 174q-68 82 -138 166q-127 157 -127 204z" />
<glyph unicode="&#x20ac;" horiz-adv-x="1499" d="M-2 442l111 109h141q-12 88 -6 178h-246l111 109h149q53 256 241.5 401t452.5 145q61 0 176 -33.5t175 -33.5q74 0 90 67h47l18 -460h-51q-98 379 -440 379q-201 0 -326 -136q-115 -121 -147 -329h854l-111 -109h-754l-2 -47q0 -57 8 -131h572l-111 -109h-438 q102 -381 473 -381q252 0 461 209l39 -39q-201 -260 -561 -260q-238 0 -410 121q-180 125 -242 350h-274z" />
<glyph unicode="&#x2122;" horiz-adv-x="3059" d="M1265 0v41q115 0 160 55q39 51 39 168v887q0 102 -49 133q-33 20 -146 33v39h408l471 -1030l451 1030h409v-39q-106 -16 -135 -37q-43 -33 -43 -129v-942q0 -96 40 -131t138 -37v-41h-575v41q96 2 135 29q51 35 51 125v970l-520 -1165h-31l-512 1120v-856q0 -115 37 -164 q45 -57 156 -59v-41h-484zM66 1006l14 350h1155l14 -350h-53q-33 160 -92 212q-57 50 -204 50h-11h-127v-1045q0 -115 47 -151q37 -29 149 -31v-41h-600v41q92 2 134 22q59 31 59 113v1092h-158q-139 0 -196 -64q-49 -53 -78 -198h-53z" />
<glyph unicode="&#x221a;" horiz-adv-x="950" d="M45 866v29q125 12 272 55l27 -8q102 -352 102 -758v-28q119 119 220 258q139 195 139 299q0 33 -17 47l-49 47q-23 23 -22 72q0 70 80 69q53 0 85.5 -37t32.5 -92q0 -133 -157 -370q-86 -125 -156 -203l-147 -166q-106 -119 -144 -119q-20 0 -20 70v65l-6 142l-27 311 l-25 151q-14 94 -34 125q-31 41 -113 41h-41z" />
<glyph unicode="&#x25ca;" horiz-adv-x="950" d="M45 866v29q125 12 272 55l27 -8q102 -352 102 -758v-28q119 119 220 258q139 195 139 299q0 33 -17 47l-49 47q-23 23 -22 72q0 70 80 69q53 0 85.5 -37t32.5 -92q0 -133 -157 -370q-86 -125 -156 -203l-147 -166q-106 -119 -144 -119q-20 0 -20 70v65l-6 142l-27 311 l-25 151q-14 94 -34 125q-31 41 -113 41h-41z" />
<glyph unicode="&#xe000;" horiz-adv-x="920" d="M0 920h920v-920h-920v920z" />
<glyph unicode="&#xfb01;" horiz-adv-x="1425" d="M955 88q0 102 85 371.5t85 345.5q0 43 -49 51q-10 2 -84 2v37q84 0 344 53l8 -6l-178 -649q-45 -164 -45 -182q0 -31 30 -31q61 0 178 168l29 -25q-154 -248 -303 -248q-100 0 -100 113zM1209 1290q0 47 27.5 81t72.5 34q49 0 81 -33t32 -82q0 -47 -32 -81.5t-79 -34.5 q-45 0 -73.5 34.5t-28.5 81.5zM86 0v47q66 2 93.5 19.5t27.5 74.5v635q0 61 -29 80q-18 14 -92 21v45h741l7 -215h-54q-12 45 -47 114q-27 27 -115 27l-206 2q-47 0 -47 -23v-305l186 -2q72 0 99.5 26.5t39.5 104.5h51v-336h-51q-10 72 -30.5 99.5t-84.5 27.5l-210 4v-296 q0 -61 26.5 -81t95.5 -22v-47h-401z" />
<glyph unicode="&#xfb02;" horiz-adv-x="1773" d="M963 0v47q66 2 92.5 19.5t26.5 76.5v648q0 68 -70 79q-10 2 -49 7v45h405v-45q-33 -2 -92 -17q-35 -18 -35 -76v-663q0 -49 88 -49q182 0 240 18q102 35 158 168h55l-70 -258h-749zM86 0v47q66 2 93.5 19.5t27.5 74.5v635q0 61 -29 80q-18 14 -92 21v45h741l7 -215h-54 q-12 45 -47 114q-27 27 -115 27l-206 2q-47 0 -47 -23v-305l186 -2q72 0 99.5 26.5t39.5 104.5h51v-336h-51q-10 72 -30.5 99.5t-84.5 27.5l-210 4v-296q0 -61 26.5 -81t95.5 -22v-47h-401z" />
<glyph unicode="&#xfb03;" horiz-adv-x="2308" d="M1837 88q0 102 85 371.5t85 345.5q0 43 -49 51q-10 2 -84 2v37q84 0 344 53l8 -6l-178 -649q-45 -164 -45 -182q0 -31 30 -31q61 0 178 168l29 -25q-154 -248 -303 -248q-100 0 -100 113zM2091 1290q0 47 27.5 81t72.5 34q49 0 81 -33t32 -82q0 -47 -32 -81.5t-79 -34.5 q-45 0 -73.5 34.5t-28.5 81.5zM969 0v47q66 2 93.5 19.5t27.5 74.5v635q0 61 -29 80q-18 14 -92 21v45h741l7 -215h-54q-12 45 -47 114q-27 27 -115 27l-206 2q-47 0 -47 -23v-305l186 -2q72 0 99.5 26.5t39.5 104.5h51v-336h-51q-10 72 -30.5 99.5t-84.5 27.5l-210 4v-296 q0 -61 26.5 -81t95.5 -22v-47h-401zM86 0v47q66 2 93.5 19.5t27.5 74.5v635q0 61 -29 80q-18 14 -92 21v45h741l7 -215h-54q-12 45 -47 114q-27 27 -115 27l-206 2q-47 0 -47 -23v-305l186 -2q72 0 99.5 26.5t39.5 104.5h51v-336h-51q-10 72 -30.5 99.5t-84.5 27.5l-210 4 v-296q0 -61 26.5 -81t95.5 -22v-47h-401z" />
<glyph unicode="&#xfb04;" horiz-adv-x="2656" d="M1845 0v47q66 2 92.5 19.5t26.5 76.5v648q0 68 -70 79q-10 2 -49 7v45h405v-45q-33 -2 -92 -17q-35 -18 -35 -76v-663q0 -49 88 -49q182 0 240 18q102 35 158 168h55l-70 -258h-749zM969 0v47q66 2 93.5 19.5t27.5 74.5v635q0 61 -29 80q-18 14 -92 21v45h741l7 -215h-54 q-12 45 -47 114q-27 27 -115 27l-206 2q-47 0 -47 -23v-305l186 -2q72 0 99.5 26.5t39.5 104.5h51v-336h-51q-10 72 -30.5 99.5t-84.5 27.5l-210 4v-296q0 -61 26.5 -81t95.5 -22v-47h-401zM86 0v47q66 2 93.5 19.5t27.5 74.5v635q0 61 -29 80q-18 14 -92 21v45h741l7 -215 h-54q-12 45 -47 114q-27 27 -115 27l-206 2q-47 0 -47 -23v-305l186 -2q72 0 99.5 26.5t39.5 104.5h51v-336h-51q-10 72 -30.5 99.5t-84.5 27.5l-210 4v-296q0 -61 26.5 -81t95.5 -22v-47h-401z" />
</font>
</defs>
</svg>
